<svg xmlns="http://www.w3.org/2000/svg" viewBox="0 0 239.68 209.24"><defs><style>.cls-1,.cls-10,.cls-11,.cls-12,.cls-14,.cls-9{fill:none;}.cls-2{clip-path:url(#clip-path);}.cls-3{fill:#179bd7;opacity:0.1;}.cls-15,.cls-16,.cls-17,.cls-3,.cls-4{isolation:isolate;}.cls-4{fill:#007199;opacity:0.2;}.cls-5{fill:#189bd7;}.cls-6,.cls-8{fill:#20afe2;}.cls-7{fill:#09153a;}.cls-10,.cls-11,.cls-12,.cls-8,.cls-9{stroke:#cce2eb;}.cls-10,.cls-11,.cls-12,.cls-14,.cls-8,.cls-9{stroke-linecap:round;}.cls-11{stroke-miterlimit:4;}.cls-13{fill:#16214f;}.cls-14{stroke:#fff;}.cls-16{font-size:12px;}.cls-16,.cls-17{fill:#fff;font-family:YuGo-Bold-83pv-RKSJ-H, YuGothic;}.cls-17{font-size:12px;}</style><clipPath id="clip-path" transform="translate(-0.24 -1)"><rect class="cls-1" width="241" height="210"/></clipPath></defs><g class="cls-2"><g id="マスクグループ_1" data-name="マスクグループ 1"><g id="グループ_369" data-name="グループ 369"><g id="グループ_364" data-name="グループ 364"><path id="パス_1" data-name="パス 1" class="cls-3" d="M188.54,21.43c28.39,6.17,51.73,33.22,51.37,59.88s-24.42,52.84-44.56,78.08-36.12,49.51-56.42,50.8S94,189.71,73.73,175.29s-36.49-21.53-50.36-34.2S-2.08,110.16.63,93.82,20.35,63.06,38.14,55.19,74.56,45.9,100.6,37.87,160.12,15.21,188.54,21.43Z" transform="translate(-0.24 -1)"/><ellipse id="楕円形_15" data-name="楕円形 15" class="cls-4" cx="129.03" cy="173.2" rx="78.85" ry="4.68"/><path id="パス_118" data-name="パス 118" class="cls-5" d="M47,45c2.23-5.52,12.88-13.57,21.37-12.66S83.2,37.1,86.07,43.84s1.91,24-1.15,33.76S80,93.63,74.24,97.7s-15.12,9.42-23.75,7S35.14,97.28,35,91.36s4.32-9.27,6.73-11.24,5.84-7.45,6.12-11.62S44.73,50.47,47,45Z" transform="translate(-0.24 -1)"/><path id="パス_125" data-name="パス 125" class="cls-5" d="M82.84,107.63c-1.56,4.57-7.49,14.87-5.69,31.31s6.34,16.75,8.68,16.75,19.52,2.28,41.53,1.87,40.78,3.45,43.5,0,4.31-21.94,2.38-31.3S167,105.89,164.63,103s-12.62-5-38.88-5.1S84.41,103.05,82.84,107.63Z" transform="translate(-0.24 -1)"/><path id="パス_126" data-name="パス 126" class="cls-5" d="M86.08,143.26c-.71,6.49-3.15,24.42-1.06,25.65s9.4,3.81,15.63,2.36,12.86-3.18,13.39-4.67-1.51-17.36-3-23.34" transform="translate(-0.24 -1)"/><path id="パス_128" data-name="パス 128" class="cls-5" d="M166.4,147.68c.94,6.2,4.1,23.34,1.74,24.55s-10.6,3.79-17.7,2.5-14.67-2.85-15.31-4.27,1.36-16.65,2.86-22.4" transform="translate(-0.24 -1)"/><path id="パス_127" data-name="パス 127" class="cls-6" d="M86.87,161.2c1.44-.45,2.57-.07,4.07.26s2.57,3.41,2.59,4-.33-5.4,4.06-5.47a5.28,5.28,0,0,1,5.52,4.82c.06,1.08.58-4.16,5.36-3.8s4.7,1.93,5.34,2.58.41,3,.25,3.42-10.85,5-16,5.32-13.17-2.51-13.49-3.48-.67-4.45,0-5.76A2.85,2.85,0,0,1,86.87,161.2Z" transform="translate(-0.24 -1)"/><path id="パス_129" data-name="パス 129" class="cls-6" d="M165.24,164.7c-2.56-.39-2.3-.34-4,0s-2.86,3.32-2.87,3.94.26-5.21-4.74-5.21-6.13,3.69-6.18,4.73-.75-4-6.19-3.58-5.19.56-5.9,1.2-1.1,3.6,0,4.93,12.12,4.39,18,4.61,14.94-2.62,15.28-3.57.67-4.46,0-5.54S167.81,165.08,165.24,164.7Z" transform="translate(-0.24 -1)"/><path id="パス_119" data-name="パス 119" class="cls-5" d="M180.56,35.75c10-.73,20.6,6.11,21.27,12.63s-4.54,14.87-8.12,20.33-5.57,10.88-4.9,14.52,14,9,13,16.84-5,15.3-14.41,14.33-16.48-11.52-19-15.31-7-15.93-7.58-30.38-4.37-14.54,0-22.85S170.51,36.48,180.56,35.75Z" transform="translate(-0.24 -1)"/><path id="パス_117" data-name="パス 117" class="cls-6" d="M92.45,29.65c9.1-7.57,41.84-9.06,56.19,0s17.89,15.4,24.07,37.92,4.14,34.71,2.08,36.66-12.85,5.69-23.55,6.64-46.23,1.64-53.36,1.46-14.4-2.42-19-5.69-5.6-13.08-6.37-18.86,3.35-23.56,6.37-31.52S83.35,37.23,92.45,29.65Z" transform="translate(-0.24 -1)"/><ellipse id="楕円形_13" data-name="楕円形 13" class="cls-7" cx="97.26" cy="71" rx="4.5" ry="4"/><circle id="楕円形_14" data-name="楕円形 14" class="cls-7" cx="148.76" cy="71" r="4"/><path id="パス_120" data-name="パス 120" class="cls-8" d="M110.14,105.3s11.7,15.84,19.5,23.11,20.35,24.27,41,22.4,27.68-6.11,32.91-13.83,7.17-31.25,7.41-40.34.81-20,1.79-23.11,8.49-10.28,8.32-14.56-2.5-5.78-6-6.36-10.49,3.81-15.88,3.75-14.12-4.5-17.16-4.74-4.7.26-5.47,3.33,3.1,9.67,5.47,11.55,4.78,5.32,8.76,9.68,4.08,15.41,3.84,20.46,3.23,25.89-12.6,31.77-22.23,2.81-27.33-1.73-14.36-11.83-16.09-21.38" transform="translate(-0.24 -1)"/><path id="パス_121" data-name="パス 121" class="cls-9" d="M151.63,134.61c1.42-1,4.74-3.42,6.48-4" transform="translate(-0.24 -1)"/><path id="パス_122" data-name="パス 122" class="cls-10" d="M162.4,138.16a48.14,48.14,0,0,1,2.52-5.34" transform="translate(-0.24 -1)"/><path id="パス_123" data-name="パス 123" class="cls-11" d="M174.08,138.25a47.27,47.27,0,0,1-2.1-5.53" transform="translate(-0.24 -1)"/><path id="パス_124" data-name="パス 124" class="cls-12" d="M184,132.75c-.9-.67-3.07-2.22-4.06-3.15" transform="translate(-0.24 -1)"/><g id="グループ_363" data-name="グループ 363"><path id="パス_130" data-name="パス 130" class="cls-13" d="M107.41,16.44C105.56,10,110.89,5.5,117.26,5.16s16,2.09,14.26,9.8-4.45,9.36-11,9.71S109.26,22.93,107.41,16.44Z" transform="translate(-0.24 -1)"/><path id="パス_132" data-name="パス 132" class="cls-6" d="M113.15,4.39c-.09-1.87,1-2.93,2.15-2.82a2.41,2.41,0,0,1,2.28,2.54,2.49,2.49,0,0,1-.13.66c-.59,2.09-1.13,2.46-2.3,2.34S113.23,6.25,113.15,4.39Z" transform="translate(-0.24 -1)"/><path id="パス_133" data-name="パス 133" class="cls-6" d="M119.72,1c1.58.15,2.26,1.73,1.94,3.2s-1.45,3.4-3.08,2.35-1.84-1.81-1.52-3.32S118.15.87,119.72,1Z" transform="translate(-0.24 -1)"/><g id="グループ_362" data-name="グループ 362"><path id="パス_134" data-name="パス 134" class="cls-14" d="M115.57,12.34a30.43,30.43,0,0,1,2.57,2.09c.13.25.64,5.71.64,6" transform="translate(-0.24 -1)"/><path id="パス_135" data-name="パス 135" class="cls-14" d="M120.68,11.56a15.59,15.59,0,0,0-2.61,2.95" transform="translate(-0.24 -1)"/><path id="パス_136" data-name="パス 136" class="cls-14" d="M115.37,15.43c6.48-.42,6.56-.64,6.93-.73" transform="translate(-0.24 -1)"/><path id="パス_137" data-name="パス 137" class="cls-14" d="M115.76,17a33.36,33.36,0,0,0,6.16,0" transform="translate(-0.24 -1)"/></g></g></g><g id="グループ_365" data-name="グループ 365"><path id="パス_138" data-name="パス 138" class="cls-13" d="M9.4,44c.43,1.23,1.16,11.47,2.31,15.94a80.91,80.91,0,0,0,4,11.71c.93,1.92,1.6,5.65,2.52,6.1s12.82-4.24,13.94-4.37,8.52-3.06,8.69-3.83-1.43-10.43-2.09-13.08-3.53-18.57-4.22-20.95,0-2.81-1.6-2.85a128.69,128.69,0,0,0-15.92,3c-2.59.84-6.12,1.63-7,2.33S7.67,40,7.8,40.9,9,42.81,9.4,44Z" transform="translate(-0.24 -1)"/><g id="貯_金" data-name="貯 金" class="cls-15"><text class="cls-16" transform="translate(17.65 51.21) rotate(-14)">貯</text><text class="cls-16" transform="translate(21.28 65.76) rotate(-14)">金</text></g></g><g id="グループ_366" data-name="グループ 366"><path id="パス_138-2" data-name="パス 138-2" class="cls-13" d="M234.2,141.75c-.59,1.16-2.74,11.19-4.5,15.45a81.65,81.65,0,0,1-5.61,11c-1.19,1.77-2.37,5.37-3.34,5.69s-12.09-6-13.2-6.26-8-4.22-8.06-5,2.87-10.12,3.89-12.65,6.08-17.88,7.1-20.15.38-2.77,2-2.59a127.52,127.52,0,0,1,15.34,5.19c2.44,1.2,5.83,2.47,6.62,3.29s2.07,2.2,1.82,3.13S234.79,140.59,234.2,141.75Z" transform="translate(-0.24 -1)"/><g id="貯_金-2" data-name="貯 金-2" class="cls-15"><text class="cls-17" transform="translate(211.9 143.66) rotate(13.97)">貯</text><text class="cls-17" transform="translate(208.27 158.21) rotate(13.97)">金</text></g></g></g></g></g></svg>