<svg xmlns="http://www.w3.org/2000/svg" width="22.399" height="22.398" viewBox="0 0 22.399 22.398">
  <g id="グループ_25" data-name="グループ 25" transform="translate(-283.371 -474.486)">
    <g id="グループ_22" data-name="グループ 22" transform="translate(283.371 481.951)">
      <g id="グループ_21" data-name="グループ 21">
        <path id="パス_9" data-name="パス 9" d="M305.3,497.228h-.467V483.7a.467.467,0,0,0-.466-.467h-2.8a.466.466,0,0,0-.466.467v13.533h-1.867v-7.933a.467.467,0,0,0-.467-.466h-2.8a.467.467,0,0,0-.467.466v7.933h-1.867v-9.8a.466.466,0,0,0-.466-.466h-2.8a.467.467,0,0,0-.466.466v9.8h-1.867v-5.133a.467.467,0,0,0-.466-.467h-2.8a.467.467,0,0,0-.466.467v5.133h-.467a.466.466,0,0,0,0,.933H305.3a.466.466,0,1,0,0-.933Z" transform="translate(-283.371 -483.228)" fill="#222d65"/>
      </g>
    </g>
    <g id="グループ_24" data-name="グループ 24" transform="translate(284.304 474.486)">
      <g id="グループ_23" data-name="グループ 23" transform="translate(0)">
        <path id="パス_10" data-name="パス 10" d="M303.129,474.486a1.855,1.855,0,0,0-1.6,2.809l-3.055,3.055a1.834,1.834,0,0,0-2.388.435l-2.293-.654c0-.015.005-.029.005-.044a1.867,1.867,0,0,0-3.734,0,1.834,1.834,0,0,0,.166.759l-2.917,2.327a1.837,1.837,0,0,0-.981-.287,1.867,1.867,0,1,0,1.866,1.867,1.838,1.838,0,0,0-.242-.9l2.859-2.28a1.842,1.842,0,0,0,2.718-.545l2.163.617a1.746,1.746,0,0,0-.032.308,1.867,1.867,0,1,0,3.47-.943l3.055-3.056a1.839,1.839,0,0,0,.941.265,1.866,1.866,0,1,0,0-3.733Z" transform="translate(-284.464 -474.486)" fill="#179bd7"/>
      </g>
    </g>
  </g>
</svg>
