<svg xmlns="http://www.w3.org/2000/svg" width="385.082" height="947.788" viewBox="0 0 385.082 947.788">
  <g id="Group_12" data-name="Group 12" transform="translate(8.248 72.354)">
    <g id="グループ_101" data-name="グループ 101">
      <g id="Group_11" data-name="Group 11" opacity="0.1">
        <path id="Path_10" data-name="Path 10" d="M-8,875c25.477-14.519,104.619-55.147,198.962-33.34,26.718,6.176,41.738,28.022,73.67,30.114,45.392,2.972,84.754-26.72,111.849-53.774" fill="none" stroke="#fff" stroke-miterlimit="10" stroke-width="1"/>
      </g>
      <g id="グループ_1" data-name="グループ 1" opacity="0.1">
        <path id="パス_1" data-name="パス 1" d="M-8,866.188c25.477-14.519,104.619-55.147,198.962-33.34,26.718,6.176,41.738,28.022,73.67,30.114,45.392,2.972,84.754-26.72,111.849-53.774" fill="none" stroke="#fff" stroke-miterlimit="10" stroke-width="1"/>
      </g>
      <g id="グループ_2" data-name="グループ 2" opacity="0.1">
        <path id="パス_2" data-name="パス 2" d="M-8,857.376c25.477-14.519,104.619-55.147,198.962-33.34,26.718,6.176,41.738,28.022,73.67,30.114,45.392,2.972,84.754-26.72,111.849-53.774" fill="none" stroke="#fff" stroke-miterlimit="10" stroke-width="1"/>
      </g>
      <g id="グループ_3" data-name="グループ 3" opacity="0.1">
        <path id="パス_3" data-name="パス 3" d="M-8,848.564c25.477-14.519,104.619-55.147,198.962-33.34,26.718,6.176,41.738,28.022,73.67,30.114,45.392,2.972,84.754-26.72,111.849-53.774" fill="none" stroke="#fff" stroke-miterlimit="10" stroke-width="1"/>
      </g>
      <g id="グループ_4" data-name="グループ 4" opacity="0.1">
        <path id="パス_4" data-name="パス 4" d="M-8,839.752c25.477-14.519,104.619-55.147,198.962-33.34,26.718,6.176,41.738,28.022,73.67,30.114,45.392,2.972,84.754-26.72,111.849-53.773" fill="none" stroke="#fff" stroke-miterlimit="10" stroke-width="1"/>
      </g>
      <g id="グループ_5" data-name="グループ 5" opacity="0.1">
        <path id="パス_5" data-name="パス 5" d="M-8,830.941c25.477-14.519,104.619-55.147,198.962-33.34,26.718,6.176,41.738,28.022,73.67,30.114,45.392,2.972,84.754-26.72,111.849-53.774" fill="none" stroke="#fff" stroke-miterlimit="10" stroke-width="1"/>
      </g>
      <g id="グループ_6" data-name="グループ 6" opacity="0.1">
        <path id="パス_6" data-name="パス 6" d="M-8,822.129c25.477-14.519,104.619-55.147,198.962-33.34,26.718,6.176,41.738,28.022,73.67,30.114,45.392,2.972,84.754-26.72,111.849-53.774" fill="none" stroke="#fff" stroke-miterlimit="10" stroke-width="1"/>
      </g>
      <g id="グループ_7" data-name="グループ 7" opacity="0.1">
        <path id="パス_7" data-name="パス 7" d="M-8,813.317C17.477,798.8,96.619,758.17,190.962,779.977c26.718,6.176,41.738,28.022,73.67,30.114,45.392,2.972,84.754-26.72,111.849-53.774" fill="none" stroke="#fff" stroke-miterlimit="10" stroke-width="1"/>
      </g>
      <g id="グループ_8" data-name="グループ 8" opacity="0.1">
        <path id="パス_8" data-name="パス 8" d="M-8,804.505c25.477-14.519,104.619-55.147,198.962-33.34,26.718,6.176,41.738,28.022,73.67,30.114,45.392,2.972,84.754-26.72,111.849-53.774" fill="none" stroke="#fff" stroke-miterlimit="10" stroke-width="1"/>
      </g>
      <g id="グループ_9" data-name="グループ 9" opacity="0.1">
        <path id="パス_9" data-name="パス 9" d="M-8,795.693c25.477-14.519,104.619-55.147,198.962-33.34,26.718,6.176,41.738,28.022,73.67,30.114,45.392,2.972,84.754-26.72,111.849-53.774" fill="none" stroke="#fff" stroke-miterlimit="10" stroke-width="1"/>
      </g>
      <g id="グループ_10" data-name="グループ 10" opacity="0.1">
        <path id="パス_10" data-name="パス 10" d="M-8,786.881c25.477-14.519,104.619-55.147,198.962-33.34,26.718,6.176,41.738,28.022,73.67,30.114,45.392,2.972,84.754-26.72,111.849-53.774" fill="none" stroke="#fff" stroke-miterlimit="10" stroke-width="1"/>
      </g>
      <g id="グループ_11" data-name="グループ 11" opacity="0.1">
        <path id="パス_11" data-name="パス 11" d="M-8,778.069c25.477-14.519,104.619-55.147,198.962-33.34,26.718,6.176,41.738,28.022,73.67,30.114,45.392,2.972,84.754-26.72,111.849-53.774" fill="none" stroke="#fff" stroke-miterlimit="10" stroke-width="1"/>
      </g>
      <g id="グループ_12" data-name="グループ 12" opacity="0.1">
        <path id="パス_12" data-name="パス 12" d="M-8,769.257c25.477-14.519,104.619-55.147,198.962-33.34,26.718,6.176,41.738,28.022,73.67,30.114,45.392,2.972,84.754-26.72,111.849-53.774" fill="none" stroke="#fff" stroke-miterlimit="10" stroke-width="1"/>
      </g>
      <g id="グループ_13" data-name="グループ 13" opacity="0.1">
        <path id="パス_13" data-name="パス 13" d="M-8,760.446c25.477-14.519,104.619-55.147,198.962-33.34,26.718,6.176,41.738,28.022,73.67,30.114,45.392,2.972,84.754-26.72,111.849-53.774" fill="none" stroke="#fff" stroke-miterlimit="10" stroke-width="1"/>
      </g>
      <g id="グループ_14" data-name="グループ 14" opacity="0.1">
        <path id="パス_14" data-name="パス 14" d="M-8,751.634c25.477-14.519,104.619-55.147,198.962-33.34,26.718,6.176,41.738,28.022,73.67,30.114,45.392,2.972,84.754-26.72,111.849-53.774" fill="none" stroke="#fff" stroke-miterlimit="10" stroke-width="1"/>
      </g>
      <g id="グループ_15" data-name="グループ 15" opacity="0.1">
        <path id="パス_15" data-name="パス 15" d="M-8,742.822c25.477-14.519,104.619-55.147,198.962-33.34,26.718,6.176,41.738,28.022,73.67,30.114,45.392,2.972,84.754-26.72,111.849-53.774" fill="none" stroke="#fff" stroke-miterlimit="10" stroke-width="1"/>
      </g>
      <g id="グループ_16" data-name="グループ 16" opacity="0.1">
        <path id="パス_16" data-name="パス 16" d="M-8,734.01c25.477-14.519,104.619-55.147,198.962-33.34,26.718,6.176,41.738,28.022,73.67,30.114,45.392,2.972,84.754-26.72,111.849-53.774" fill="none" stroke="#fff" stroke-miterlimit="10" stroke-width="1"/>
      </g>
      <g id="グループ_17" data-name="グループ 17" opacity="0.1">
        <path id="パス_17" data-name="パス 17" d="M-8,725.2c25.477-14.519,104.619-55.147,198.962-33.34,26.718,6.176,41.738,28.022,73.67,30.114,45.392,2.972,84.754-26.72,111.849-53.774" fill="none" stroke="#fff" stroke-miterlimit="10" stroke-width="1"/>
      </g>
      <g id="グループ_18" data-name="グループ 18" opacity="0.1">
        <path id="パス_18" data-name="パス 18" d="M-8,716.386c25.477-14.519,104.619-55.147,198.962-33.34,26.718,6.176,41.738,28.022,73.67,30.114,45.392,2.972,84.754-26.72,111.849-53.774" fill="none" stroke="#fff" stroke-miterlimit="10" stroke-width="1"/>
      </g>
      <g id="グループ_19" data-name="グループ 19" opacity="0.1">
        <path id="パス_19" data-name="パス 19" d="M-8,707.574c25.477-14.519,104.619-55.147,198.962-33.34,26.718,6.176,41.738,28.022,73.67,30.114,45.392,2.972,84.754-26.72,111.849-53.774" fill="none" stroke="#fff" stroke-miterlimit="10" stroke-width="1"/>
      </g>
      <g id="グループ_20" data-name="グループ 20" opacity="0.1">
        <path id="パス_20" data-name="パス 20" d="M-8,698.762c25.477-14.519,104.619-55.147,198.962-33.34,26.718,6.176,41.738,28.022,73.67,30.114,45.392,2.972,84.754-26.72,111.849-53.774" fill="none" stroke="#fff" stroke-miterlimit="10" stroke-width="1"/>
      </g>
      <g id="グループ_21" data-name="グループ 21" opacity="0.1">
        <path id="パス_21" data-name="パス 21" d="M-8,689.95C17.477,675.431,96.619,634.8,190.962,656.61c26.718,6.176,41.738,28.023,73.67,30.115,45.392,2.971,84.754-26.72,111.849-53.774" fill="none" stroke="#fff" stroke-miterlimit="10" stroke-width="1"/>
      </g>
      <g id="グループ_22" data-name="グループ 22" opacity="0.1">
        <path id="パス_22" data-name="パス 22" d="M-8,681.139C17.477,666.62,96.619,625.992,190.962,647.8c26.718,6.176,41.738,28.022,73.67,30.114,45.392,2.972,84.754-26.72,111.849-53.774" fill="none" stroke="#fff" stroke-miterlimit="10" stroke-width="1"/>
      </g>
      <g id="グループ_23" data-name="グループ 23" opacity="0.1">
        <path id="パス_23" data-name="パス 23" d="M-8,672.327c25.477-14.519,104.619-55.147,198.962-33.34,26.718,6.176,41.738,28.022,73.67,30.114,45.392,2.972,84.754-26.72,111.849-53.774" fill="none" stroke="#fff" stroke-miterlimit="10" stroke-width="1"/>
      </g>
      <g id="グループ_24" data-name="グループ 24" opacity="0.1">
        <path id="パス_24" data-name="パス 24" d="M-8,663.515C17.477,649,96.619,608.368,190.962,630.175c26.718,6.176,41.738,28.022,73.67,30.114,45.392,2.972,84.754-26.72,111.849-53.774" fill="none" stroke="#fff" stroke-miterlimit="10" stroke-width="1"/>
      </g>
      <g id="グループ_25" data-name="グループ 25" opacity="0.1">
        <path id="パス_25" data-name="パス 25" d="M-8,654.7c25.477-14.519,104.619-55.147,198.962-33.34,26.718,6.176,41.738,28.022,73.67,30.114,45.392,2.972,84.754-26.72,111.849-53.774" fill="none" stroke="#fff" stroke-miterlimit="10" stroke-width="1"/>
      </g>
      <g id="グループ_26" data-name="グループ 26" opacity="0.1">
        <path id="パス_26" data-name="パス 26" d="M-8,645.891c25.477-14.519,104.619-55.147,198.962-33.34,26.718,6.176,41.738,28.022,73.67,30.114,45.392,2.972,84.754-26.72,111.849-53.774" fill="none" stroke="#fff" stroke-miterlimit="10" stroke-width="1"/>
      </g>
      <g id="グループ_27" data-name="グループ 27" opacity="0.1">
        <path id="パス_27" data-name="パス 27" d="M-8,637.079c25.477-14.519,104.619-55.147,198.962-33.34,26.718,6.176,41.738,28.022,73.67,30.114,45.392,2.972,84.754-26.72,111.849-53.774" fill="none" stroke="#fff" stroke-miterlimit="10" stroke-width="1"/>
      </g>
      <g id="グループ_28" data-name="グループ 28" opacity="0.1">
        <path id="パス_28" data-name="パス 28" d="M-8,628.267c25.477-14.519,104.619-55.147,198.962-33.34,26.718,6.176,41.738,28.022,73.67,30.114,45.392,2.972,84.754-26.72,111.849-53.774" fill="none" stroke="#fff" stroke-miterlimit="10" stroke-width="1"/>
      </g>
      <g id="グループ_29" data-name="グループ 29" opacity="0.1">
        <path id="パス_29" data-name="パス 29" d="M-8,619.455c25.477-14.519,104.619-55.147,198.962-33.34,26.718,6.176,41.738,28.022,73.67,30.114,45.392,2.972,84.754-26.72,111.849-53.774" fill="none" stroke="#fff" stroke-miterlimit="10" stroke-width="1"/>
      </g>
      <g id="グループ_30" data-name="グループ 30" opacity="0.1">
        <path id="パス_30" data-name="パス 30" d="M-8,610.644C17.477,596.125,96.619,555.5,190.962,577.3c26.718,6.176,41.738,28.022,73.67,30.114,45.392,2.972,84.754-26.72,111.849-53.774" fill="none" stroke="#fff" stroke-miterlimit="10" stroke-width="1"/>
      </g>
      <g id="グループ_31" data-name="グループ 31" opacity="0.1">
        <path id="パス_31" data-name="パス 31" d="M-8,601.832c25.477-14.519,104.619-55.147,198.962-33.34,26.718,6.176,41.738,28.022,73.67,30.114,45.392,2.972,84.754-26.72,111.849-53.774" fill="none" stroke="#fff" stroke-miterlimit="10" stroke-width="1"/>
      </g>
      <g id="グループ_32" data-name="グループ 32" opacity="0.1">
        <path id="パス_32" data-name="パス 32" d="M-8,593.02C17.477,578.5,96.619,537.873,190.962,559.68c26.718,6.176,41.738,28.022,73.67,30.114,45.392,2.972,84.754-26.72,111.849-53.774" fill="none" stroke="#fff" stroke-miterlimit="10" stroke-width="1"/>
      </g>
      <g id="グループ_33" data-name="グループ 33" opacity="0.1">
        <path id="パス_33" data-name="パス 33" d="M-8,584.208c25.477-14.519,104.619-55.147,198.962-33.34,26.718,6.176,41.738,28.022,73.67,30.114,45.392,2.972,84.754-26.72,111.849-53.774" fill="none" stroke="#fff" stroke-miterlimit="10" stroke-width="1"/>
      </g>
      <g id="グループ_34" data-name="グループ 34" opacity="0.1">
        <path id="パス_34" data-name="パス 34" d="M-8,575.4c25.477-14.519,104.619-55.147,198.962-33.34,26.718,6.176,41.738,28.022,73.67,30.114,45.392,2.972,84.754-26.72,111.849-53.774" fill="none" stroke="#fff" stroke-miterlimit="10" stroke-width="1"/>
      </g>
      <g id="グループ_35" data-name="グループ 35" opacity="0.1">
        <path id="パス_35" data-name="パス 35" d="M-8,566.584c25.477-14.519,104.619-55.147,198.962-33.34,26.718,6.176,41.738,28.022,73.67,30.114,45.392,2.972,84.754-26.72,111.849-53.774" fill="none" stroke="#fff" stroke-miterlimit="10" stroke-width="1"/>
      </g>
      <g id="グループ_36" data-name="グループ 36" opacity="0.1">
        <path id="パス_36" data-name="パス 36" d="M-8,557.772c25.477-14.519,104.619-55.147,198.962-33.34,26.718,6.176,41.738,28.022,73.67,30.114,45.392,2.972,84.754-26.72,111.849-53.774" fill="none" stroke="#fff" stroke-miterlimit="10" stroke-width="1"/>
      </g>
      <g id="グループ_37" data-name="グループ 37" opacity="0.1">
        <path id="パス_37" data-name="パス 37" d="M-8,548.96c25.477-14.519,104.619-55.147,198.962-33.34,26.718,6.176,41.738,28.022,73.67,30.114,45.392,2.972,84.754-26.72,111.849-53.774" fill="none" stroke="#fff" stroke-miterlimit="10" stroke-width="1"/>
      </g>
      <g id="グループ_38" data-name="グループ 38" opacity="0.1">
        <path id="パス_38" data-name="パス 38" d="M-8,540.149C17.477,525.63,96.619,485,190.962,506.809c26.718,6.176,41.738,28.022,73.67,30.114,45.392,2.972,84.754-26.72,111.849-53.774" fill="none" stroke="#fff" stroke-miterlimit="10" stroke-width="1"/>
      </g>
      <g id="グループ_39" data-name="グループ 39" opacity="0.1">
        <path id="パス_39" data-name="パス 39" d="M-8,531.337C17.477,516.818,96.619,476.19,190.962,498c26.718,6.176,41.738,28.022,73.67,30.114,45.392,2.972,84.754-26.72,111.849-53.774" fill="none" stroke="#fff" stroke-miterlimit="10" stroke-width="1"/>
      </g>
      <g id="グループ_40" data-name="グループ 40" opacity="0.1">
        <path id="パス_40" data-name="パス 40" d="M-8,522.525c25.477-14.519,104.619-55.147,198.962-33.34,26.718,6.176,41.738,28.022,73.67,30.114,45.392,2.972,84.754-26.72,111.849-53.774" fill="none" stroke="#fff" stroke-miterlimit="10" stroke-width="1"/>
      </g>
      <g id="グループ_41" data-name="グループ 41" opacity="0.1">
        <path id="パス_41" data-name="パス 41" d="M-8,513.713c25.477-14.519,104.619-55.147,198.962-33.34,26.718,6.176,41.738,28.022,73.67,30.114,45.392,2.972,84.754-26.72,111.849-53.774" fill="none" stroke="#fff" stroke-miterlimit="10" stroke-width="1"/>
      </g>
      <g id="グループ_42" data-name="グループ 42" opacity="0.1">
        <path id="パス_42" data-name="パス 42" d="M-8,504.9c25.477-14.519,104.619-55.147,198.962-33.34,26.718,6.176,41.738,28.022,73.67,30.114,45.392,2.972,84.754-26.72,111.849-53.774" fill="none" stroke="#fff" stroke-miterlimit="10" stroke-width="1"/>
      </g>
      <g id="グループ_43" data-name="グループ 43" opacity="0.1">
        <path id="パス_43" data-name="パス 43" d="M-8,496.089c25.477-14.519,104.619-55.147,198.962-33.34,26.718,6.176,41.738,28.022,73.67,30.114,45.392,2.972,84.754-26.72,111.849-53.774" fill="none" stroke="#fff" stroke-miterlimit="10" stroke-width="1"/>
      </g>
      <g id="グループ_44" data-name="グループ 44" opacity="0.1">
        <path id="パス_44" data-name="パス 44" d="M-8,487.277c25.477-14.519,104.619-55.147,198.962-33.34,26.718,6.176,41.738,28.022,73.67,30.114,45.392,2.972,84.754-26.72,111.849-53.774" fill="none" stroke="#fff" stroke-miterlimit="10" stroke-width="1"/>
      </g>
      <g id="グループ_45" data-name="グループ 45" opacity="0.1">
        <path id="パス_45" data-name="パス 45" d="M-8,478.465c25.477-14.519,104.619-55.147,198.962-33.34,26.718,6.176,41.738,28.022,73.67,30.114,45.392,2.972,84.754-26.72,111.849-53.774" fill="none" stroke="#fff" stroke-miterlimit="10" stroke-width="1"/>
      </g>
      <g id="グループ_46" data-name="グループ 46" opacity="0.1">
        <path id="パス_46" data-name="パス 46" d="M-8,469.653c25.477-14.519,104.619-55.147,198.962-33.34,26.718,6.176,41.738,28.022,73.67,30.114,45.392,2.972,84.754-26.72,111.849-53.774" fill="none" stroke="#fff" stroke-miterlimit="10" stroke-width="1"/>
      </g>
      <g id="グループ_47" data-name="グループ 47" opacity="0.1">
        <path id="パス_47" data-name="パス 47" d="M-8,460.842C17.477,446.323,96.619,405.7,190.962,427.5c26.718,6.176,41.738,28.022,73.67,30.114,45.392,2.972,84.754-26.72,111.849-53.774" fill="none" stroke="#fff" stroke-miterlimit="10" stroke-width="1"/>
      </g>
      <g id="グループ_48" data-name="グループ 48" opacity="0.1">
        <path id="パス_48" data-name="パス 48" d="M-8,452.03c25.477-14.519,104.619-55.147,198.962-33.34,26.718,6.176,41.738,28.022,73.67,30.114,45.392,2.972,84.754-26.72,111.849-53.774" fill="none" stroke="#fff" stroke-miterlimit="10" stroke-width="1"/>
      </g>
      <g id="グループ_49" data-name="グループ 49" opacity="0.1">
        <path id="パス_49" data-name="パス 49" d="M-8,443.218c25.477-14.519,104.619-55.147,198.962-33.34,26.718,6.176,41.738,28.022,73.67,30.114,45.392,2.972,84.754-26.72,111.849-53.774" fill="none" stroke="#fff" stroke-miterlimit="10" stroke-width="1"/>
      </g>
      <g id="グループ_50" data-name="グループ 50" opacity="0.1">
        <path id="パス_50" data-name="パス 50" d="M-8,434.406c25.477-14.519,104.619-55.147,198.962-33.34,26.718,6.176,41.738,28.022,73.67,30.114,45.392,2.972,84.754-26.72,111.849-53.774" fill="none" stroke="#fff" stroke-miterlimit="10" stroke-width="1"/>
      </g>
      <g id="グループ_51" data-name="グループ 51" opacity="0.1">
        <path id="パス_51" data-name="パス 51" d="M-8,425.594c25.477-14.519,104.619-55.147,198.962-33.34,26.718,6.176,41.738,28.022,73.67,30.114,45.392,2.972,84.754-26.72,111.849-53.774" fill="none" stroke="#fff" stroke-miterlimit="10" stroke-width="1"/>
      </g>
      <g id="グループ_52" data-name="グループ 52" opacity="0.1">
        <path id="パス_52" data-name="パス 52" d="M-8,416.782c25.477-14.519,104.619-55.147,198.962-33.34,26.718,6.176,41.738,28.022,73.67,30.114,45.392,2.972,84.754-26.72,111.849-53.774" fill="none" stroke="#fff" stroke-miterlimit="10" stroke-width="1"/>
      </g>
      <g id="グループ_53" data-name="グループ 53" opacity="0.1">
        <path id="パス_53" data-name="パス 53" d="M-8,407.97c25.477-14.519,104.619-55.147,198.962-33.34,26.718,6.176,41.738,28.022,73.67,30.114,45.392,2.972,84.754-26.72,111.849-53.774" fill="none" stroke="#fff" stroke-miterlimit="10" stroke-width="1"/>
      </g>
      <g id="グループ_54" data-name="グループ 54" opacity="0.1">
        <path id="パス_54" data-name="パス 54" d="M-8,399.158c25.477-14.519,104.619-55.147,198.962-33.34,26.718,6.176,41.738,28.022,73.67,30.114,45.392,2.972,84.754-26.72,111.849-53.774" fill="none" stroke="#fff" stroke-miterlimit="10" stroke-width="1"/>
      </g>
      <g id="グループ_55" data-name="グループ 55" opacity="0.1">
        <path id="パス_55" data-name="パス 55" d="M-8,390.347c25.477-14.519,104.619-55.147,198.962-33.34,26.718,6.176,41.738,28.022,73.67,30.114,45.392,2.972,84.754-26.72,111.849-53.774" fill="none" stroke="#fff" stroke-miterlimit="10" stroke-width="1"/>
      </g>
      <g id="グループ_56" data-name="グループ 56" opacity="0.1">
        <path id="パス_56" data-name="パス 56" d="M-8,381.535c25.477-14.519,104.619-55.147,198.962-33.34,26.718,6.176,41.738,28.022,73.67,30.114,45.392,2.972,84.754-26.72,111.849-53.774" fill="none" stroke="#fff" stroke-miterlimit="10" stroke-width="1"/>
      </g>
      <g id="グループ_57" data-name="グループ 57" opacity="0.1">
        <path id="パス_57" data-name="パス 57" d="M-8,372.723c25.477-14.519,104.619-55.147,198.962-33.34,26.718,6.176,41.738,28.022,73.67,30.114,45.392,2.972,84.754-26.72,111.849-53.774" fill="none" stroke="#fff" stroke-miterlimit="10" stroke-width="1"/>
      </g>
      <g id="グループ_58" data-name="グループ 58" opacity="0.1">
        <path id="パス_58" data-name="パス 58" d="M-8,363.911c25.477-14.519,104.619-55.147,198.962-33.34,26.718,6.176,41.738,28.022,73.67,30.114,45.392,2.972,84.754-26.72,111.849-53.774" fill="none" stroke="#fff" stroke-miterlimit="10" stroke-width="1"/>
      </g>
      <g id="グループ_59" data-name="グループ 59" opacity="0.1">
        <path id="パス_59" data-name="パス 59" d="M-8,355.1c25.477-14.519,104.619-55.147,198.962-33.34,26.718,6.176,41.738,28.022,73.67,30.114,45.392,2.972,84.754-26.72,111.849-53.774" fill="none" stroke="#fff" stroke-miterlimit="10" stroke-width="1"/>
      </g>
      <g id="グループ_60" data-name="グループ 60" opacity="0.1">
        <path id="パス_60" data-name="パス 60" d="M-8,346.287c25.477-14.519,104.619-55.147,198.962-33.34,26.718,6.176,41.738,28.022,73.67,30.114,45.392,2.972,84.754-26.72,111.849-53.774" fill="none" stroke="#fff" stroke-miterlimit="10" stroke-width="1"/>
      </g>
      <g id="グループ_61" data-name="グループ 61" opacity="0.1">
        <path id="パス_61" data-name="パス 61" d="M-8,337.475c25.477-14.519,104.619-55.147,198.962-33.34,26.718,6.176,41.738,28.022,73.67,30.114,45.392,2.972,84.754-26.72,111.849-53.774" fill="none" stroke="#fff" stroke-miterlimit="10" stroke-width="1"/>
      </g>
      <g id="グループ_62" data-name="グループ 62" opacity="0.1">
        <path id="パス_62" data-name="パス 62" d="M-8,328.663c25.477-14.519,104.619-55.147,198.962-33.34,26.718,6.176,41.738,28.022,73.67,30.114,45.392,2.972,84.754-26.72,111.849-53.774" fill="none" stroke="#fff" stroke-miterlimit="10" stroke-width="1"/>
      </g>
      <g id="グループ_63" data-name="グループ 63" opacity="0.1">
        <path id="パス_63" data-name="パス 63" d="M-8,319.851c25.477-14.519,104.619-55.147,198.962-33.34,26.718,6.176,41.738,28.022,73.67,30.115,45.392,2.971,84.754-26.72,111.849-53.774" fill="none" stroke="#fff" stroke-miterlimit="10" stroke-width="1"/>
      </g>
      <g id="グループ_64" data-name="グループ 64" opacity="0.1">
        <path id="パス_64" data-name="パス 64" d="M-8,311.04c25.477-14.519,104.619-55.147,198.962-33.34,26.718,6.176,41.738,28.022,73.67,30.114,45.392,2.972,84.754-26.72,111.849-53.774" fill="none" stroke="#fff" stroke-miterlimit="10" stroke-width="1"/>
      </g>
      <g id="グループ_65" data-name="グループ 65" opacity="0.1">
        <path id="パス_65" data-name="パス 65" d="M-8,302.228c25.477-14.519,104.619-55.147,198.962-33.34C217.68,275.064,232.7,296.91,264.632,299c45.392,2.972,84.754-26.72,111.849-53.774" fill="none" stroke="#fff" stroke-miterlimit="10" stroke-width="1"/>
      </g>
      <g id="グループ_66" data-name="グループ 66" opacity="0.1">
        <path id="パス_66" data-name="パス 66" d="M-8,293.416c25.477-14.519,104.619-55.147,198.962-33.34,26.718,6.176,41.738,28.022,73.67,30.114,45.392,2.972,84.754-26.72,111.849-53.774" fill="none" stroke="#fff" stroke-miterlimit="10" stroke-width="1"/>
      </g>
      <g id="グループ_67" data-name="グループ 67" opacity="0.1">
        <path id="パス_67" data-name="パス 67" d="M-8,284.6c25.477-14.519,104.619-55.147,198.962-33.34,26.718,6.176,41.738,28.022,73.67,30.114,45.392,2.972,84.754-26.72,111.849-53.774" fill="none" stroke="#fff" stroke-miterlimit="10" stroke-width="1"/>
      </g>
      <g id="グループ_68" data-name="グループ 68" opacity="0.1">
        <path id="パス_68" data-name="パス 68" d="M-8,275.792c25.477-14.519,104.619-55.147,198.962-33.34,26.718,6.176,41.738,28.022,73.67,30.114,45.392,2.972,84.754-26.72,111.849-53.774" fill="none" stroke="#fff" stroke-miterlimit="10" stroke-width="1"/>
      </g>
      <g id="グループ_69" data-name="グループ 69" opacity="0.1">
        <path id="パス_69" data-name="パス 69" d="M-8,266.98c25.477-14.519,104.619-55.147,198.962-33.34,26.718,6.176,41.738,28.022,73.67,30.114,45.392,2.972,84.754-26.72,111.849-53.774" fill="none" stroke="#fff" stroke-miterlimit="10" stroke-width="1"/>
      </g>
      <g id="グループ_70" data-name="グループ 70" opacity="0.1">
        <path id="パス_70" data-name="パス 70" d="M-8,258.168c25.477-14.519,104.619-55.147,198.962-33.34C217.68,231,232.7,252.85,264.632,254.942c45.392,2.972,84.754-26.72,111.849-53.774" fill="none" stroke="#fff" stroke-miterlimit="10" stroke-width="1"/>
      </g>
      <g id="グループ_71" data-name="グループ 71" opacity="0.1">
        <path id="パス_71" data-name="パス 71" d="M-8,249.356c25.477-14.519,104.619-55.147,198.962-33.34,26.718,6.176,41.738,28.022,73.67,30.114,45.392,2.972,84.754-26.72,111.849-53.774" fill="none" stroke="#fff" stroke-miterlimit="10" stroke-width="1"/>
      </g>
      <g id="グループ_72" data-name="グループ 72" opacity="0.1">
        <path id="パス_72" data-name="パス 72" d="M-8,240.545c25.477-14.519,104.619-55.147,198.962-33.34,26.718,6.176,41.738,28.022,73.67,30.114,45.392,2.972,84.754-26.72,111.849-53.774" fill="none" stroke="#fff" stroke-miterlimit="10" stroke-width="1"/>
      </g>
      <g id="グループ_73" data-name="グループ 73" opacity="0.1">
        <path id="パス_73" data-name="パス 73" d="M-8,231.733c25.477-14.519,104.619-55.147,198.962-33.34,26.718,6.176,41.738,28.022,73.67,30.114,45.392,2.972,84.754-26.72,111.849-53.774" fill="none" stroke="#fff" stroke-miterlimit="10" stroke-width="1"/>
      </g>
      <g id="グループ_74" data-name="グループ 74" opacity="0.1">
        <path id="パス_74" data-name="パス 74" d="M-8,222.921c25.477-14.519,104.619-55.147,198.962-33.34,26.718,6.176,41.738,28.022,73.67,30.114,45.392,2.972,84.754-26.72,111.849-53.774" fill="none" stroke="#fff" stroke-miterlimit="10" stroke-width="1"/>
      </g>
      <g id="グループ_75" data-name="グループ 75" opacity="0.1">
        <path id="パス_75" data-name="パス 75" d="M-8,214.109c25.477-14.519,104.619-55.147,198.962-33.34,26.718,6.176,41.738,28.022,73.67,30.114,45.392,2.972,84.754-26.72,111.849-53.774" fill="none" stroke="#fff" stroke-miterlimit="10" stroke-width="1"/>
      </g>
      <g id="グループ_76" data-name="グループ 76" opacity="0.1">
        <path id="パス_76" data-name="パス 76" d="M-8,205.3c25.477-14.519,104.619-55.147,198.962-33.34,26.718,6.176,41.738,28.022,73.67,30.114,45.392,2.972,84.754-26.72,111.849-53.774" fill="none" stroke="#fff" stroke-miterlimit="10" stroke-width="1"/>
      </g>
      <g id="グループ_77" data-name="グループ 77" opacity="0.1">
        <path id="パス_77" data-name="パス 77" d="M-8,196.485c25.477-14.519,104.619-55.147,198.962-33.34,26.718,6.176,41.738,28.022,73.67,30.114,45.392,2.972,84.754-26.72,111.849-53.774" fill="none" stroke="#fff" stroke-miterlimit="10" stroke-width="1"/>
      </g>
      <g id="グループ_78" data-name="グループ 78" opacity="0.1">
        <path id="パス_78" data-name="パス 78" d="M-8,187.673c25.477-14.519,104.619-55.147,198.962-33.34,26.718,6.176,41.738,28.022,73.67,30.114,45.392,2.972,84.754-26.72,111.849-53.774" fill="none" stroke="#fff" stroke-miterlimit="10" stroke-width="1"/>
      </g>
      <g id="グループ_79" data-name="グループ 79" opacity="0.1">
        <path id="パス_79" data-name="パス 79" d="M-8,178.861c25.477-14.519,104.619-55.147,198.962-33.34,26.718,6.176,41.738,28.022,73.67,30.114,45.392,2.972,84.754-26.72,111.849-53.774" fill="none" stroke="#fff" stroke-miterlimit="10" stroke-width="1"/>
      </g>
      <g id="グループ_80" data-name="グループ 80" opacity="0.1">
        <path id="パス_80" data-name="パス 80" d="M-8,170.05C17.477,155.53,96.619,114.9,190.962,136.71c26.718,6.176,41.738,28.022,73.67,30.114,45.392,2.972,84.754-26.72,111.849-53.774" fill="none" stroke="#fff" stroke-miterlimit="10" stroke-width="1"/>
      </g>
      <g id="グループ_81" data-name="グループ 81" opacity="0.1">
        <path id="パス_81" data-name="パス 81" d="M-8,161.238c25.477-14.519,104.619-55.147,198.962-33.34,26.718,6.176,41.738,28.022,73.67,30.114,45.392,2.972,84.754-26.72,111.849-53.774" fill="none" stroke="#fff" stroke-miterlimit="10" stroke-width="1"/>
      </g>
      <g id="グループ_82" data-name="グループ 82" opacity="0.1">
        <path id="パス_82" data-name="パス 82" d="M-8,152.426c25.477-14.519,104.619-55.147,198.962-33.34,26.718,6.176,41.738,28.022,73.67,30.114,45.392,2.972,84.754-26.72,111.849-53.774" fill="none" stroke="#fff" stroke-miterlimit="10" stroke-width="1"/>
      </g>
      <g id="グループ_83" data-name="グループ 83" opacity="0.1">
        <path id="パス_83" data-name="パス 83" d="M-8,143.614C17.477,129.1,96.619,88.467,190.962,110.274c26.718,6.176,41.738,28.022,73.67,30.114,45.392,2.972,84.754-26.72,111.849-53.774" fill="none" stroke="#fff" stroke-miterlimit="10" stroke-width="1"/>
      </g>
      <g id="グループ_84" data-name="グループ 84" opacity="0.1">
        <path id="パス_84" data-name="パス 84" d="M-8,134.8c25.477-14.519,104.619-55.147,198.962-33.34,26.718,6.176,41.738,28.022,73.67,30.114,45.392,2.972,84.754-26.72,111.849-53.774" fill="none" stroke="#fff" stroke-miterlimit="10" stroke-width="1"/>
      </g>
      <g id="グループ_85" data-name="グループ 85" opacity="0.1">
        <path id="パス_85" data-name="パス 85" d="M-8,125.99C17.477,111.471,96.619,70.843,190.962,92.65c26.718,6.176,41.738,28.022,73.67,30.114,45.392,2.972,84.754-26.72,111.849-53.774" fill="none" stroke="#fff" stroke-miterlimit="10" stroke-width="1"/>
      </g>
      <g id="グループ_86" data-name="グループ 86" opacity="0.1">
        <path id="パス_86" data-name="パス 86" d="M-8,117.178c25.477-14.519,104.619-55.147,198.962-33.34,26.718,6.176,41.738,28.022,73.67,30.114,45.392,2.972,84.754-26.72,111.849-53.774" fill="none" stroke="#fff" stroke-miterlimit="10" stroke-width="1"/>
      </g>
      <g id="グループ_87" data-name="グループ 87" opacity="0.1">
        <path id="パス_87" data-name="パス 87" d="M-8,108.366C17.477,93.847,96.619,53.219,190.962,75.026c26.718,6.176,41.738,28.022,73.67,30.114,45.392,2.972,84.754-26.72,111.849-53.774" fill="none" stroke="#fff" stroke-miterlimit="10" stroke-width="1"/>
      </g>
      <g id="グループ_88" data-name="グループ 88" opacity="0.1">
        <path id="パス_88" data-name="パス 88" d="M-8,99.554C17.477,85.035,96.619,44.407,190.962,66.214c26.718,6.176,41.738,28.022,73.67,30.114,45.392,2.972,84.754-26.72,111.849-53.774" fill="none" stroke="#fff" stroke-miterlimit="10" stroke-width="1"/>
      </g>
      <g id="グループ_89" data-name="グループ 89" opacity="0.1">
        <path id="パス_89" data-name="パス 89" d="M-8,90.743C17.477,76.224,96.619,35.6,190.962,57.4c26.718,6.176,41.738,28.022,73.67,30.114,45.392,2.972,84.754-26.72,111.849-53.774" fill="none" stroke="#fff" stroke-miterlimit="10" stroke-width="1"/>
      </g>
      <g id="グループ_90" data-name="グループ 90" opacity="0.1">
        <path id="パス_90" data-name="パス 90" d="M-8,81.931C17.477,67.412,96.619,26.784,190.962,48.591c26.718,6.176,41.738,28.022,73.67,30.114,45.392,2.972,84.754-26.72,111.849-53.774" fill="none" stroke="#fff" stroke-miterlimit="10" stroke-width="1"/>
      </g>
      <g id="グループ_91" data-name="グループ 91" opacity="0.1">
        <path id="パス_91" data-name="パス 91" d="M-8,73.119C17.477,58.6,96.619,17.972,190.962,39.779,217.68,45.955,232.7,67.8,264.632,69.893c45.392,2.972,84.754-26.72,111.849-53.774" fill="none" stroke="#fff" stroke-miterlimit="10" stroke-width="1"/>
      </g>
      <g id="グループ_92" data-name="グループ 92" opacity="0.1">
        <path id="パス_92" data-name="パス 92" d="M-8,64.307C17.477,49.788,96.619,9.16,190.962,30.967c26.718,6.176,41.738,28.022,73.67,30.114,45.392,2.972,84.754-26.72,111.849-53.774" fill="none" stroke="#fff" stroke-miterlimit="10" stroke-width="1"/>
      </g>
      <g id="グループ_93" data-name="グループ 93" opacity="0.1">
        <path id="パス_93" data-name="パス 93" d="M-8,55.495C17.477,40.976,96.619.348,190.962,22.155c26.718,6.176,41.738,28.022,73.67,30.114,45.392,2.972,84.754-26.72,111.849-53.774" fill="none" stroke="#fff" stroke-miterlimit="10" stroke-width="1"/>
      </g>
      <g id="グループ_94" data-name="グループ 94" opacity="0.1">
        <path id="パス_94" data-name="パス 94" d="M-8,46.683C17.477,32.164,96.619-8.464,190.962,13.343c26.718,6.176,41.738,28.022,73.67,30.114,45.392,2.972,84.754-26.72,111.849-53.774" fill="none" stroke="#fff" stroke-miterlimit="10" stroke-width="1"/>
      </g>
      <g id="グループ_95" data-name="グループ 95" opacity="0.1">
        <path id="パス_95" data-name="パス 95" d="M-8,37.871C17.477,23.352,96.619-17.276,190.962,4.531c26.718,6.176,41.738,28.022,73.67,30.114,45.392,2.972,84.754-26.72,111.849-53.774" fill="none" stroke="#fff" stroke-miterlimit="10" stroke-width="1"/>
      </g>
      <g id="グループ_96" data-name="グループ 96" opacity="0.1">
        <path id="パス_96" data-name="パス 96" d="M-8,29.059C17.477,14.54,96.619-26.088,190.962-4.281c26.718,6.176,41.738,28.022,73.67,30.114,45.392,2.972,84.754-26.72,111.849-53.774" fill="none" stroke="#fff" stroke-miterlimit="10" stroke-width="1"/>
      </g>
      <g id="グループ_97" data-name="グループ 97" opacity="0.1">
        <path id="パス_97" data-name="パス 97" d="M-8,20.248C17.477,5.729,96.619-34.9,190.962-13.092,217.68-6.916,232.7,14.93,264.632,17.022c45.392,2.972,84.754-26.72,111.849-53.774" fill="none" stroke="#fff" stroke-miterlimit="10" stroke-width="1"/>
      </g>
      <g id="グループ_98" data-name="グループ 98" opacity="0.1">
        <path id="パス_98" data-name="パス 98" d="M-8,11.436C17.477-3.083,96.619-43.711,190.962-21.9,217.68-15.728,232.7,6.118,264.632,8.21c45.392,2.972,84.754-26.72,111.849-53.774" fill="none" stroke="#fff" stroke-miterlimit="10" stroke-width="1"/>
      </g>
      <g id="グループ_99" data-name="グループ 99" opacity="0.1">
        <path id="パス_99" data-name="パス 99" d="M-8,2.624C17.477-11.9,96.619-52.523,190.962-30.716,217.68-24.54,232.7-2.694,264.632-.6c45.392,2.972,84.754-26.72,111.849-53.774" fill="none" stroke="#fff" stroke-miterlimit="10" stroke-width="1"/>
      </g>
      <g id="グループ_100" data-name="グループ 100" opacity="0.1">
        <path id="パス_100" data-name="パス 100" d="M-8-6.188C17.477-20.707,96.619-61.335,190.962-39.528c26.718,6.176,41.738,28.022,73.67,30.114,45.392,2.972,84.754-26.72,111.849-53.774" fill="none" stroke="#fff" stroke-miterlimit="10" stroke-width="1"/>
      </g>
      <g id="Group_11-2" data-name="Group 11" opacity="0.1">
        <path id="Path_10-2" data-name="Path 10" d="M-8-15C17.477-29.519,96.619-70.147,190.962-48.34c26.718,6.176,41.738,28.022,73.67,30.114C310.024-15.254,349.386-44.946,376.481-72" fill="none" stroke="#fff" stroke-miterlimit="10" stroke-width="1"/>
      </g>
    </g>
  </g>
</svg>
