<svg xmlns="http://www.w3.org/2000/svg" xmlns:xlink="http://www.w3.org/1999/xlink" width="375" height="191" viewBox="0 0 375 191">
  <defs>
    <clipPath id="clip-path">
      <rect id="長方形_2" data-name="長方形 2" width="375" height="191" fill="none"/>
    </clipPath>
  </defs>
  <g id="lining" opacity="0.8">
    <g id="グループ_4" data-name="グループ 4">
      <g id="グループ_3" data-name="グループ 3" clip-path="url(#clip-path)">
        <g id="Group_12" data-name="Group 12">
          <g id="Group_11" data-name="Group 11" opacity="0.1">
            <path id="Path_10" data-name="Path 10" d="M-8,333c25.477-14.519,104.619-55.147,198.962-33.34,26.718,6.176,41.738,28.022,73.67,30.114,45.392,2.972,84.754-26.72,111.849-53.774" fill="none" stroke="#fff" stroke-miterlimit="10" stroke-width="1"/>
            <path id="Path_11" data-name="Path 11" d="M-8,324.366c25.477-14.519,104.619-55.147,198.962-33.34,26.718,6.176,41.738,28.022,73.67,30.113,45.392,2.973,84.754-26.719,111.849-53.773" fill="none" stroke="#fff" stroke-miterlimit="10" stroke-width="1"/>
            <path id="Path_12" data-name="Path 12" d="M-8,315.732c25.477-14.52,104.619-55.147,198.962-33.34,26.718,6.176,41.738,28.022,73.67,30.113,45.392,2.973,84.754-26.72,111.849-53.773" fill="none" stroke="#fff" stroke-miterlimit="10" stroke-width="1"/>
            <path id="Path_13" data-name="Path 13" d="M-8,307.1c25.477-14.52,104.619-55.147,198.962-33.34,26.718,6.176,41.738,28.022,73.67,30.113,45.392,2.973,84.754-26.72,111.849-53.773" fill="none" stroke="#fff" stroke-miterlimit="10" stroke-width="1"/>
            <path id="Path_14" data-name="Path 14" d="M-8,298.463c25.477-14.519,104.619-55.146,198.962-33.339,26.718,6.175,41.738,28.022,73.67,30.113,45.392,2.973,84.754-26.72,111.849-53.774" fill="none" stroke="#fff" stroke-miterlimit="10" stroke-width="1"/>
            <path id="Path_15" data-name="Path 15" d="M-8,289.829C17.477,275.31,96.619,234.682,190.962,256.49c26.718,6.175,41.738,28.022,73.67,30.113,45.392,2.973,84.754-26.72,111.849-53.774" fill="none" stroke="#fff" stroke-miterlimit="10" stroke-width="1"/>
            <path id="Path_16" data-name="Path 16" d="M-8,281.2c25.477-14.519,104.619-55.147,198.962-33.34,26.718,6.176,41.738,28.022,73.67,30.114,45.392,2.972,84.754-26.72,111.849-53.774" fill="none" stroke="#fff" stroke-miterlimit="10" stroke-width="1"/>
            <path id="Path_17" data-name="Path 17" d="M-8,272.561c25.477-14.519,104.619-55.147,198.962-33.34,26.718,6.176,41.738,28.022,73.67,30.114,45.392,2.972,84.754-26.72,111.849-53.774" fill="none" stroke="#fff" stroke-miterlimit="10" stroke-width="1"/>
            <path id="Path_18" data-name="Path 18" d="M-8,263.927c25.477-14.519,104.619-55.147,198.962-33.34,26.718,6.176,41.738,28.022,73.67,30.113,45.392,2.973,84.754-26.719,111.849-53.773" fill="none" stroke="#fff" stroke-miterlimit="10" stroke-width="1"/>
            <path id="Path_19" data-name="Path 19" d="M-8,255.293c25.477-14.52,104.619-55.147,198.962-33.34,26.718,6.176,41.738,28.022,73.67,30.113,45.392,2.973,84.754-26.72,111.849-53.773" fill="none" stroke="#fff" stroke-miterlimit="10" stroke-width="1"/>
            <path id="Path_20" data-name="Path 20" d="M-8,246.659c25.477-14.52,104.619-55.147,198.962-33.34,26.718,6.176,41.738,28.022,73.67,30.113,45.392,2.973,84.754-26.72,111.849-53.773" fill="none" stroke="#fff" stroke-miterlimit="10" stroke-width="1"/>
            <path id="Path_21" data-name="Path 21" d="M-8,238.024c25.477-14.519,104.619-55.146,198.962-33.339,26.718,6.175,41.738,28.022,73.67,30.113,45.392,2.973,84.754-26.72,111.849-53.774" fill="none" stroke="#fff" stroke-miterlimit="10" stroke-width="1"/>
            <path id="Path_22" data-name="Path 22" d="M-8,229.39c25.477-14.519,104.619-55.147,198.962-33.339,26.718,6.175,41.738,28.021,73.67,30.113,45.392,2.973,84.754-26.72,111.849-53.774" fill="none" stroke="#fff" stroke-miterlimit="10" stroke-width="1"/>
            <path id="Path_23" data-name="Path 23" d="M-8,220.756c25.477-14.519,104.619-55.147,198.962-33.34,26.718,6.176,41.738,28.022,73.67,30.114,45.392,2.972,84.754-26.72,111.849-53.774" fill="none" stroke="#fff" stroke-miterlimit="10" stroke-width="1"/>
            <path id="Path_24" data-name="Path 24" d="M-8,212.122c25.477-14.519,104.619-55.147,198.962-33.34,26.718,6.176,41.738,28.022,73.67,30.114,45.392,2.972,84.754-26.72,111.849-53.774" fill="none" stroke="#fff" stroke-miterlimit="10" stroke-width="1"/>
            <path id="Path_25" data-name="Path 25" d="M-8,203.488c25.477-14.519,104.619-55.147,198.962-33.34,26.718,6.176,41.738,28.022,73.67,30.113,45.392,2.973,84.754-26.719,111.849-53.773" fill="none" stroke="#fff" stroke-miterlimit="10" stroke-width="1"/>
            <path id="Path_26" data-name="Path 26" d="M-8,194.854c25.477-14.52,104.619-55.147,198.962-33.34,26.718,6.176,41.738,28.022,73.67,30.113,45.392,2.973,84.754-26.72,111.849-53.773" fill="none" stroke="#fff" stroke-miterlimit="10" stroke-width="1"/>
            <path id="Path_27" data-name="Path 27" d="M-8,186.22c25.477-14.52,104.619-55.147,198.962-33.34,26.718,6.176,41.738,28.022,73.67,30.113,45.392,2.973,84.754-26.72,111.849-53.773" fill="none" stroke="#fff" stroke-miterlimit="10" stroke-width="1"/>
            <path id="Path_28" data-name="Path 28" d="M-8,177.585c25.477-14.519,104.619-55.146,198.962-33.339,26.718,6.175,41.738,28.022,73.67,30.113,45.392,2.973,84.754-26.72,111.849-53.774" fill="none" stroke="#fff" stroke-miterlimit="10" stroke-width="1"/>
            <path id="Path_29" data-name="Path 29" d="M-8,168.951C17.477,154.432,96.619,113.8,190.962,135.612c26.718,6.175,41.738,28.021,73.67,30.113,45.392,2.973,84.754-26.72,111.849-53.774" fill="none" stroke="#fff" stroke-miterlimit="10" stroke-width="1"/>
            <path id="Path_30" data-name="Path 30" d="M-8,160.317C17.477,145.8,96.619,105.17,190.962,126.977c26.718,6.176,41.738,28.022,73.67,30.114,45.392,2.972,84.754-26.72,111.849-53.774" fill="none" stroke="#fff" stroke-miterlimit="10" stroke-width="1"/>
            <path id="Path_31" data-name="Path 31" d="M-8,151.683c25.477-14.519,104.619-55.147,198.962-33.34,26.718,6.176,41.738,28.022,73.67,30.114,45.392,2.972,84.754-26.72,111.849-53.774" fill="none" stroke="#fff" stroke-miterlimit="10" stroke-width="1"/>
            <path id="Path_32" data-name="Path 32" d="M-8,143.049C17.477,128.53,96.619,87.9,190.962,109.709c26.718,6.176,41.738,28.022,73.67,30.113,45.392,2.973,84.754-26.719,111.849-53.773" fill="none" stroke="#fff" stroke-miterlimit="10" stroke-width="1"/>
            <path id="Path_33" data-name="Path 33" d="M-8,134.415c25.477-14.52,104.619-55.147,198.962-33.34,26.718,6.176,41.738,28.022,73.67,30.113,45.392,2.973,84.754-26.72,111.849-53.773" fill="none" stroke="#fff" stroke-miterlimit="10" stroke-width="1"/>
            <path id="Path_34" data-name="Path 34" d="M-8,125.78C17.477,111.261,96.619,70.634,190.962,92.441c26.718,6.176,41.738,28.022,73.67,30.113,45.392,2.973,84.754-26.72,111.849-53.774" fill="none" stroke="#fff" stroke-miterlimit="10" stroke-width="1"/>
            <path id="Path_35" data-name="Path 35" d="M-8,117.146C17.477,102.627,96.619,62,190.962,83.807c26.718,6.175,41.738,28.022,73.67,30.113,45.392,2.973,84.754-26.72,111.849-53.774" fill="none" stroke="#fff" stroke-miterlimit="10" stroke-width="1"/>
            <path id="Path_36" data-name="Path 36" d="M-8,108.512C17.477,93.993,96.619,53.365,190.962,75.173c26.718,6.175,41.738,28.021,73.67,30.113,45.392,2.973,84.754-26.72,111.849-53.774" fill="none" stroke="#fff" stroke-miterlimit="10" stroke-width="1"/>
            <path id="Path_37" data-name="Path 37" d="M-8,99.878C17.477,85.359,96.619,44.731,190.962,66.538c26.718,6.176,41.738,28.022,73.67,30.114,45.392,2.972,84.754-26.72,111.849-53.774" fill="none" stroke="#fff" stroke-miterlimit="10" stroke-width="1"/>
            <path id="Path_38" data-name="Path 38" d="M-8,91.244C17.477,76.725,96.619,36.1,190.962,57.9c26.718,6.176,41.738,28.022,73.67,30.113C310.024,90.99,349.386,61.3,376.481,34.244" fill="none" stroke="#fff" stroke-miterlimit="10" stroke-width="1"/>
            <path id="Path_39" data-name="Path 39" d="M-8,82.61C17.477,68.09,96.619,27.463,190.962,49.27c26.718,6.176,41.738,28.022,73.67,30.113,45.392,2.973,84.754-26.719,111.849-53.773" fill="none" stroke="#fff" stroke-miterlimit="10" stroke-width="1"/>
            <path id="Path_40" data-name="Path 40" d="M-8,73.976c25.477-14.52,104.619-55.147,198.962-33.34,26.718,6.176,41.738,28.022,73.67,30.113,45.392,2.973,84.754-26.72,111.849-53.773" fill="none" stroke="#fff" stroke-miterlimit="10" stroke-width="1"/>
            <path id="Path_41" data-name="Path 41" d="M-8,65.341C17.477,50.822,96.619,10.195,190.962,32c26.718,6.176,41.738,28.022,73.67,30.113,45.392,2.973,84.754-26.72,111.849-53.774" fill="none" stroke="#fff" stroke-miterlimit="10" stroke-width="1"/>
            <path id="Path_42" data-name="Path 42" d="M-8,56.707C17.477,42.188,96.619,1.561,190.962,23.368c26.718,6.175,41.738,28.022,73.67,30.113,45.392,2.973,84.754-26.72,111.849-53.774" fill="none" stroke="#fff" stroke-miterlimit="10" stroke-width="1"/>
            <path id="Path_43" data-name="Path 43" d="M-8,48.073C17.477,33.554,96.619-7.074,190.962,14.734c26.718,6.175,41.738,28.021,73.67,30.113,45.392,2.973,84.754-26.72,111.849-53.774" fill="none" stroke="#fff" stroke-miterlimit="10" stroke-width="1"/>
            <path id="Path_44" data-name="Path 44" d="M-8,39.439C17.477,24.92,96.619-15.708,190.962,6.1c26.718,6.176,41.738,28.022,73.67,30.114,45.392,2.972,84.754-26.72,111.849-53.774" fill="none" stroke="#fff" stroke-miterlimit="10" stroke-width="1"/>
            <path id="Path_45" data-name="Path 45" d="M-8,30.805C17.477,16.286,96.619-24.342,190.962-2.535c26.718,6.176,41.738,28.022,73.67,30.113C310.024,30.551,349.386.859,376.481-26.195" fill="none" stroke="#fff" stroke-miterlimit="10" stroke-width="1"/>
            <path id="Path_46" data-name="Path 46" d="M-8,22.171C17.477,7.651,96.619-32.976,190.962-11.169c26.718,6.176,41.738,28.022,73.67,30.113,45.392,2.973,84.754-26.719,111.849-53.773" fill="none" stroke="#fff" stroke-miterlimit="10" stroke-width="1"/>
            <path id="Path_47" data-name="Path 47" d="M-8,13.537C17.477-.983,96.619-41.61,190.962-19.8c26.718,6.173,41.738,28.019,73.67,30.11,45.392,2.973,84.754-26.72,111.849-53.773" fill="none" stroke="#fff" stroke-miterlimit="10" stroke-width="1"/>
            <path id="Path_48" data-name="Path 48" d="M-8,4.9C17.477-9.617,96.619-50.244,190.962-28.437,217.68-22.261,232.7-.415,264.632,1.676c45.392,2.973,84.754-26.72,111.849-53.774" fill="none" stroke="#fff" stroke-miterlimit="10" stroke-width="1"/>
            <path id="Path_49" data-name="Path 49" d="M-8-3.732C17.477-18.251,96.619-58.879,190.962-37.071,217.68-30.9,232.7-9.049,264.632-6.958c45.392,2.973,84.754-26.72,111.849-53.774" fill="none" stroke="#fff" stroke-miterlimit="10" stroke-width="1"/>
            <path id="Path_50" data-name="Path 50" d="M-8-12.366C17.477-26.885,96.619-67.513,190.962-45.705c26.718,6.175,41.738,28.021,73.67,30.113,45.392,2.973,84.754-26.72,111.849-53.774" fill="none" stroke="#fff" stroke-miterlimit="10" stroke-width="1"/>
            <path id="Path_51" data-name="Path 51" d="M-8-21C17.477-35.519,96.619-76.147,190.962-54.34c26.718,6.176,41.738,28.022,73.67,30.114C310.024-21.254,349.386-50.946,376.481-78" fill="none" stroke="#fff" stroke-miterlimit="10" stroke-width="1"/>
          </g>
        </g>
      </g>
    </g>
  </g>
</svg>
