<svg version="1.1" id="_x30_" xmlns="http://www.w3.org/2000/svg" xmlns:xlink="http://www.w3.org/1999/xlink" x="0px" y="0px"
	 viewBox="0 0 512 512" style="enable-background:new 0 0 512 512;" xml:space="preserve">
<g>
	<rect style="opacity:0;fill:#FFFFFF;" width="512" height="512"/>
	<polygon style="opacity:0.1;fill:#231815;" points="512,273.565 512,512 239,512 142.13,415.13 146.175,168.09 276.325,37.94 
		479.795,241.36 	"/>
	<g>
		<path style="fill:#F5BAAD;" d="M104.825,203.565c-14.545,0-15.76,0-24.245,0s-15.76,12.12-6.06,21.82
			c9.7,9.695,14.55,16.97,14.55,16.97L104.825,203.565z"/>
		<path style="fill:#F5BAAD;" d="M441.84,260.54c-2.14,10.7-8.325,43.155-10.91,50.915c-4.85,14.55-9.92,18.64-19.09,24.545
			c-5.045,3.25-10.165,6.325-15.37,9.32l22.37-104.86C430.965,245.115,444.155,248.95,441.84,260.54z"/>
		<g>
			<path style="fill:#FADFDC;" d="M417.17,239.825c-19.33-7.655-23.82-32.17-43.645-60.01C357.36,157.07,328.54,135.32,289.7,126.54
				c-9.64-2.2-19.875-3.585-30.715-4.005c-8.955-0.34-17.54-0.255-25.77,0.21c-24.205,1.365-45.31,6.065-63.53,13.175
				c-67.135,26.185-95.16,85.175-95.16,131.16c0,31.785,11.35,58.369,29.04,79.104L103,346c6.675,8.49,28.88,39.585,34.3,53.95
				h52.385v-4.835c8.53,1.69,17.075,2.675,25.46,2.89c6.06,0.165,12.095,0.08,18.07-0.17c14.81-0.62,29.215-2.385,42.535-4.79v6.905
				h55.825c3.496-8.69,8.35-20.11,13.351-28.345c18.745-8.875,35.62-17.13,51.55-26.275L418.84,240.46
				C418.28,240.24,417.715,240.04,417.17,239.825z"/>
			<path style="fill:#F5BAAD;" d="M326.675,412.075c-2.425,4.85-6.065,8.485-16.975,8.485c-10.91,0-16.97,0-24.245,0
				c-7.27,0-9.695-7.275-9.695-15.76c0-1.295,0-2.96,0-4.85h55.815C329.16,405.945,327.39,410.645,326.675,412.075z"/>
			<path style="fill:#F5BAAD;" d="M309.7,411.47c5.775,0,7.365-1.01,8.275-2.425h-32.81c0.2,1.185,0.465,1.97,0.675,2.425H309.7z"/>
			<path style="fill:#F5BAAD;" d="M189.685,404.8c0,8.485-2.275,15.76-9.1,15.76c-6.825,0-12.515,0-22.755,0
				c-10.235,0-13.65-3.635-15.925-8.485c-0.675-1.43-2.335-6.13-4.6-12.125h52.38C189.685,401.84,189.685,403.505,189.685,404.8z"/>
			<path style="fill:#F5BAAD;" d="M179.71,411.47c0.195-0.51,0.42-1.3,0.595-2.425h-29.76c0.815,1.485,2.04,2.425,7.285,2.425
				H179.71z"/>
		</g>
		<circle style="fill:#F3A7A8;" cx="326.22" cy="312.82" r="31.67"/>
		<path style="fill:#FFFFFF;" d="M336.98,257.205c0,12.555,10.175,22.73,22.73,22.73c12.55,0,22.73-10.175,22.73-22.73
			c0-12.55-10.18-22.73-22.73-22.73C347.155,234.475,336.98,244.655,336.98,257.205z"/>
		<path style="fill:#604C3F;" d="M342.065,250.845c0,8.235,6.68,14.91,14.915,14.91c8.235,0,14.915-6.675,14.915-14.91
			c0-8.24-6.68-14.915-14.915-14.915C348.745,235.93,342.065,242.605,342.065,250.845z"/>
		<path style="fill:#CBAA9E;" d="M169.685,135.92v9.455h0.76c21.28-8.71,46.97-13.965,77.63-13.965c3.475,0,7.02,0.07,10.565,0.22
			c10.675,0.4,21.075,1.85,31.06,4.25v-9.34c-9.64-2.2-19.875-3.585-30.715-4.005C223.69,121.19,194.105,126.39,169.685,135.92z"/>
		<g>
			<path style="fill:#FFFFFF;" d="M121.64,229.7l-3.055-0.85l3.015,0.985L121.64,229.7l-3.055-0.85l3.015,0.985l-0.685-0.225
				l0.68,0.24l0.005-0.015l-0.685-0.225l0.68,0.24c0.005-0.015,0.115-0.31,0.32-0.74c0.38-0.815,1.06-2.11,1.975-3.65
				c1.615-2.71,3.96-6.195,6.87-9.93c4.37-5.61,10.04-11.795,16.48-17.1c6.435-5.325,13.625-9.725,20.94-12.139
				c5.84-1.941,9.005-8.25,7.065-14.095s-8.25-9.01-14.09-7.07c-8.935,2.97-16.92,7.59-23.96,12.845
				c-10.555,7.9-19.035,17.25-25.245,25.445c-3.105,4.11-5.63,7.925-7.57,11.23c-0.965,1.661-1.79,3.185-2.48,4.625
				c-0.345,0.725-0.66,1.425-0.95,2.145c-0.285,0.725-0.55,1.455-0.795,2.33c-1.645,5.93,1.83,12.075,7.77,13.72
				C113.855,239.11,119.995,235.63,121.64,229.7z"/>
		</g>
		<path style="fill:#F5BAAD;" d="M303.48,157.585c5.765-8.975,12.685-24.93,20.75-30.915c8.07-5.98,23.05,0,23.05,8.98
			c0,8.975,0,24.93,0,33.905c0,8.975-25.355,13.96-39.185,8.975C294.26,173.545,303.48,157.585,303.48,157.585z"/>
		<g>
			<path style="fill:#E7BE56;" d="M296.86,89.695c0,13.345-4.13,25.75-11.165,35.985c-1.965,2.86-4.165,5.55-6.565,8.06
				c-6.69-1.15-13.53-1.86-20.495-2.11c-0.4-0.02-0.8-0.04-1.2-0.04c-3.145-0.125-6.29-0.18-9.365-0.18
				c-5.09,0-10.035,0.145-14.855,0.435l-19.82,2.005c-7.49,1.105-14.605,2.56-21.37,4.325c-2.635-2.235-5.09-4.71-7.345-7.345
				c-9.435-11.11-15.11-25.46-15.11-41.135c0-35.095,28.55-63.645,63.645-63.645C268.31,26.05,296.86,54.6,296.86,89.695z"/>
			<g>
				<path style="fill:#FBE4AD;" d="M281.62,89.695c0,12.985-5.11,24.75-13.435,33.44c-3.15,3.31-6.765,6.165-10.75,8.455
					c-3.145-0.125-6.29-0.18-9.365-0.18c-5.09,0-10.035,0.145-14.855,0.435l-19.82,2.005c-4.165-1.86-8.02-4.295-11.46-7.22
					c-0.525-0.44-1.035-0.89-1.545-1.37c-0.035-0.03-0.07-0.07-0.11-0.105c-2.345-2.185-4.49-4.585-6.36-7.205
					c-0.435-0.58-0.84-1.2-1.24-1.8c-0.58-0.87-1.125-1.78-1.635-2.69c-0.29-0.51-0.58-1.035-0.835-1.56
					c-0.11-0.18-0.22-0.385-0.29-0.565c-0.29-0.565-0.565-1.125-0.82-1.695c-0.31-0.67-0.6-1.34-0.855-2.03
					c-0.18-0.42-0.345-0.86-0.49-1.28c-0.275-0.74-0.53-1.49-0.765-2.25c-0.13-0.365-0.235-0.73-0.325-1.11
					c-0.11-0.345-0.2-0.69-0.295-1.055c-0.015-0.035-0.035-0.075-0.035-0.125c-0.145-0.51-0.255-1.02-0.365-1.55
					c-0.09-0.34-0.16-0.71-0.215-1.07c-0.095-0.35-0.165-0.69-0.2-1.055V98.1c-0.075-0.42-0.145-0.82-0.2-1.24
					c-0.075-0.4-0.13-0.8-0.165-1.2c-0.075-0.51-0.13-1.02-0.165-1.53c-0.015-0.07-0.035-0.16-0.015-0.25
					c-0.075-0.53-0.11-1.04-0.13-1.57c-0.055-0.87-0.07-1.74-0.07-2.615c0-26.73,21.675-48.405,48.405-48.405
					c0.875,0,1.745,0.02,2.62,0.07c0.525,0.02,1.035,0.06,1.56,0.13c0.09-0.02,0.185,0,0.255,0.02c0.42,0.03,0.84,0.07,1.255,0.125
					c0.075,0,0.13,0,0.2,0.015c0.455,0.06,0.91,0.11,1.365,0.185c0.055,0,0.125,0.015,0.18,0.035c0.2,0.02,0.385,0.055,0.585,0.09
					c0.055,0,0.09,0,0.145,0.02c0.415,0.055,0.82,0.145,1.22,0.24c0.395,0.05,0.78,0.14,1.16,0.23c0.53,0.11,1.04,0.22,1.55,0.37
					c0.05,0,0.09,0.015,0.125,0.03c0.365,0.095,0.71,0.185,1.055,0.29c0.38,0.095,0.745,0.205,1.11,0.33
					c0.76,0.24,1.51,0.49,2.255,0.765c0.415,0.145,0.855,0.31,1.27,0.49c0.745,0.295,1.49,0.6,2.219,0.945
					c0.505,0.22,1.015,0.475,1.51,0.73c0.18,0.07,0.38,0.18,0.56,0.29c0.53,0.255,1.055,0.545,1.565,0.835
					c0.22,0.11,0.42,0.235,0.635,0.365c0.365,0.2,0.71,0.42,1.055,0.64c0.15,0.09,0.295,0.18,0.44,0.29
					c0.2,0.126,0.415,0.25,0.615,0.38c0.275,0.18,0.545,0.36,0.82,0.56c0.18,0.11,0.345,0.22,0.51,0.37
					c0.38,0.23,0.765,0.525,1.145,0.815c0.215,0.145,0.435,0.325,0.655,0.49c0.89,0.695,1.765,1.42,2.6,2.165
					c0.565,0.49,1.09,1,1.62,1.53c0.545,0.525,1.07,1.05,1.58,1.615c0.055,0.035,0.09,0.095,0.125,0.125
					C276.75,65.51,281.62,77.02,281.62,89.695z"/>
				<path style="fill:#D4A948;" d="M187.55,92.44c0-26.735,21.675-48.41,48.41-48.41c12.665,0,24.195,4.875,32.82,12.84
					c-8.84-9.58-21.5-15.58-35.565-15.58c-26.735,0-48.405,21.67-48.405,48.405c0,14.065,6,26.725,15.58,35.565
					C192.425,116.635,187.55,105.11,187.55,92.44z"/>
			</g>
			<g>
				<path style="fill:#D4A948;" d="M253.76,69.49c-0.215-0.215-0.45-0.435-0.67-0.65c-0.055-0.06-0.09-0.09-0.125-0.13
					c-3.475-3.09-8.13-5.02-13.17-5h-18.29c-1.73,0-3.42,0.69-4.655,1.93c-1.22,1.215-1.93,2.91-1.93,4.65v48.28
					c0,1.44,0.455,2.785,1.255,3.86c0.475,0.67,1.075,1.23,1.765,1.67c1.02,0.67,2.255,1.055,3.565,1.055
					c1.815,0,3.435-0.725,4.635-1.91l0.02-0.015c1.2-1.2,1.925-2.84,1.925-4.66v-15.365h11.71c5.44,0,10.42-2.215,13.965-5.785
					c3.565-3.56,5.785-8.525,5.785-13.96C259.545,78.02,257.325,73.04,253.76,69.49z M244.45,78.8c1.2,1.2,1.93,2.82,1.93,4.66
					c0,1.835-0.73,3.435-1.93,4.65c-1.215,1.2-2.815,1.93-4.655,1.93h-11.71V76.875h11.71c1.475,0,2.805,0.475,3.895,1.295
					C243.96,78.35,244.215,78.565,244.45,78.8z"/>
				<path style="fill:#E7BE56;" d="M253.09,68.84c-0.055-0.06-0.09-0.09-0.125-0.13c-0.22-0.235-0.44-0.47-0.655-0.69
					c-3.565-3.564-8.55-5.78-13.965-5.78H220.05c-1.73,0-3.44,0.705-4.655,1.925c-1.24,1.235-1.93,2.925-1.93,4.655v48.28
					c0,2.18,1.055,4.13,2.71,5.33c1.095,0.8,2.42,1.27,3.875,1.27c3.635,0,6.58-2.965,6.58-6.6v-15.35h11.715
					c5.415,0,10.4-2.22,13.965-5.78c3.56-3.565,5.78-8.55,5.78-13.985C258.09,76.965,256.18,72.33,253.09,68.84z M226.63,75.4
					h11.715c1.835,0.02,3.435,0.73,4.65,1.93c0.255,0.255,0.495,0.545,0.695,0.84c0.78,1.07,1.235,2.38,1.235,3.815
					c0,1.855-0.725,3.455-1.93,4.675c-1.215,1.2-2.815,1.91-4.65,1.925h-5.13l-5.13-0.015h-1.455V75.4z"/>
			</g>
		</g>
		<path style="opacity:0.22;fill:#FFFFFF;" d="M233.215,26.05v105.795l-19.82,2.005c-7.49,1.105-14.605,2.56-21.37,4.325
			c-2.635-2.235-5.09-4.71-7.345-7.345c-9.435-11.11-15.11-25.46-15.11-41.135C169.57,54.6,198.12,26.05,233.215,26.05z"/>
	</g>
</g>
</svg>