<svg xmlns="http://www.w3.org/2000/svg" viewBox="0 0 495.17 135.2"><defs><style>.cls-1{fill:#fff;}.cls-2{fill:none;stroke:#fff;stroke-miterlimit:10;}</style></defs><g id="レイヤー_2" data-name="レイヤー 2"><g id="layout"><path class="cls-1" d="M.31,134.11a1,1,0,0,1-.31-.73V74.56a1,1,0,0,1,.31-.74,1,1,0,0,1,.73-.3H19.75a23.33,23.33,0,0,1,10.31,2.17A16.14,16.14,0,0,1,37,81.87a17.58,17.58,0,0,1,2.43,9.31v25.58A17.58,17.58,0,0,1,37,126.07a16.12,16.12,0,0,1-6.92,6.17,23.33,23.33,0,0,1-10.31,2.18H1A1,1,0,0,1,.31,134.11ZM12.7,123.89l7.14-.08a6.59,6.59,0,0,0,5.22-2.31,9.4,9.4,0,0,0,2.09-6.13V92.57a9.14,9.14,0,0,0-2-6.22,6.68,6.68,0,0,0-5.3-2.3H12.7a.38.38,0,0,0-.43.43v39A.38.38,0,0,0,12.7,123.89Z"/><path class="cls-1" d="M58.06,132.77A17.53,17.53,0,0,1,51,125.89a20.58,20.58,0,0,1-2.52-10.35V92.4A20.44,20.44,0,0,1,51,82.13a17.44,17.44,0,0,1,7.09-6.87,22.2,22.2,0,0,1,10.58-2.44,22.44,22.44,0,0,1,10.61,2.44,17.3,17.3,0,0,1,7.13,6.87A20.44,20.44,0,0,1,88.91,92.4v23.14a20.59,20.59,0,0,1-2.53,10.35,17.38,17.38,0,0,1-7.13,6.88,22.44,22.44,0,0,1-10.61,2.43A22.2,22.2,0,0,1,58.06,132.77Zm16.4-10.49a8.89,8.89,0,0,0,2.18-6.22v-24a9,9,0,0,0-2.18-6.31,7.5,7.5,0,0,0-5.82-2.39,7.42,7.42,0,0,0-5.75,2.39,9,9,0,0,0-2.17,6.31v24a8.88,8.88,0,0,0,2.17,6.22,7.39,7.39,0,0,0,5.75,2.4A7.47,7.47,0,0,0,74.46,122.28Z"/><path class="cls-1" d="M121.75,134.11a1,1,0,0,1-.31-.73V74.56a1,1,0,0,1,.31-.74,1,1,0,0,1,.74-.3h10.18a1,1,0,0,1,1,1v58.82a1,1,0,0,1-1,1H122.49A1,1,0,0,1,121.75,134.11Z"/><path class="cls-1" d="M183.47,73.82a1,1,0,0,1,.31.74v8.53a1,1,0,0,1-.31.74,1,1,0,0,1-.74.3H169.51a.38.38,0,0,0-.43.44v48.81a1,1,0,0,1-.31.73,1,1,0,0,1-.74.31H157.85a1,1,0,0,1-1-1V84.57a.39.39,0,0,0-.44-.44H143.58a1,1,0,0,1-.74-.3,1,1,0,0,1-.3-.74V74.56a1,1,0,0,1,1-1h39.15A1,1,0,0,1,183.47,73.82Z"/><path class="cls-1" d="M249.33,130.11q-5.36,4.3-13.79,4.31H216.05a1,1,0,0,1-1-1V74.56a1,1,0,0,1,1-1h18.19q9.3,0,14.44,4.13t5.13,12.57q0,8.63-6.7,12.44c-.29.18-.32.35-.08.53q7.65,4.35,7.65,14.35Q254.68,125.81,249.33,130.11ZM227.28,84.48V98.14a.38.38,0,0,0,.43.44h6.61a7.58,7.58,0,0,0,5.48-1.92,7,7,0,0,0,2-5.31,7.23,7.23,0,0,0-2-5.39,7.57,7.57,0,0,0-5.53-1.91h-6.61A.38.38,0,0,0,227.28,84.48Zm13.18,37.28a8,8,0,0,0,1.95-5.78,8.38,8.38,0,0,0-1.95-5.88A7,7,0,0,0,235,108h-7.31a.38.38,0,0,0-.43.44v15a.38.38,0,0,0,.43.44H235A7.2,7.2,0,0,0,240.46,121.76Z"/><path class="cls-1" d="M300.7,83.74a1,1,0,0,1-.74.31H276.65a.38.38,0,0,0-.44.43V98.05a.39.39,0,0,0,.44.44h14.53a1,1,0,0,1,1,1V108a1,1,0,0,1-.3.74,1,1,0,0,1-.74.31H276.65a.38.38,0,0,0-.44.43v14a.38.38,0,0,0,.44.43H300a1.06,1.06,0,0,1,1.05,1v8.44a1,1,0,0,1-.31.73,1,1,0,0,1-.74.31H265a1,1,0,0,1-1-1V74.56a1,1,0,0,1,.3-.74,1,1,0,0,1,.74-.3h35a1,1,0,0,1,.74.3,1,1,0,0,1,.31.74V83A1,1,0,0,1,300.7,83.74Z"/><path class="cls-1" d="M350,73.82a1,1,0,0,1,.31.74v8.53a1,1,0,0,1-1.05,1H336.08a.39.39,0,0,0-.44.44v48.81a1,1,0,0,1-1,1H324.42a1,1,0,0,1-1-1V84.57a.39.39,0,0,0-.44-.44H310.15a1,1,0,0,1-.74-.3,1,1,0,0,1-.3-.74V74.56a1,1,0,0,1,1-1H349.3A1,1,0,0,1,350,73.82Z"/><path class="cls-1" d="M399.09,73.82a1,1,0,0,1,.3.74v8.53a1,1,0,0,1-1,1H385.13a.39.39,0,0,0-.44.44v48.81a1,1,0,0,1-1,1H373.47a1,1,0,0,1-.74-.31,1,1,0,0,1-.31-.73V84.57a.38.38,0,0,0-.43-.44H359.2a1,1,0,0,1-1-1V74.56a1,1,0,0,1,.3-.74,1,1,0,0,1,.74-.3h39.15A1,1,0,0,1,399.09,73.82Z"/><path class="cls-1" d="M445,83.74a1,1,0,0,1-.73.31H421a.38.38,0,0,0-.44.43V98.05a.39.39,0,0,0,.44.44H435.5a1,1,0,0,1,1,1V108a1,1,0,0,1-.3.74,1,1,0,0,1-.74.31H421a.38.38,0,0,0-.44.43v14a.38.38,0,0,0,.44.43h23.32a1,1,0,0,1,.73.31,1,1,0,0,1,.31.74v8.44a1.06,1.06,0,0,1-1,1h-35a1,1,0,0,1-1-1V74.56a1,1,0,0,1,.3-.74,1,1,0,0,1,.74-.3h35a1,1,0,0,1,1,1V83A1,1,0,0,1,445,83.74Z"/><path class="cls-1" d="M481.89,133.55l-8.79-24c-.12-.23-.26-.35-.44-.35h-5.48a.38.38,0,0,0-.43.43v23.76a1,1,0,0,1-.31.73,1,1,0,0,1-.74.31H455.53a1.06,1.06,0,0,1-1-1V74.56a1,1,0,0,1,1-1h21.22a18.06,18.06,0,0,1,9.14,2.3,15.73,15.73,0,0,1,6.18,6.49,20.51,20.51,0,0,1,2.17,9.57,18.43,18.43,0,0,1-2.44,9.65,14.87,14.87,0,0,1-6.87,6.09.41.41,0,0,0-.26.61l9.92,25a1,1,0,0,1,.08.44c0,.52-.31.78-.95.78H483.1A1.13,1.13,0,0,1,481.89,133.55ZM466.75,84.48V99.36a.38.38,0,0,0,.43.43h7.57A6.82,6.82,0,0,0,480,97.66a8,8,0,0,0,2-5.7,8.08,8.08,0,0,0-2-5.78,6.82,6.82,0,0,0-5.22-2.13h-7.57A.38.38,0,0,0,466.75,84.48Z"/><path class="cls-1" d="M.3,61.29a1,1,0,0,1-.3-.74V1.74A1,1,0,0,1,.3,1,1,1,0,0,1,1,.7H19.75A23.36,23.36,0,0,1,30.06,2.87,16.14,16.14,0,0,1,37,9.05a17.58,17.58,0,0,1,2.43,9.31V43.93A17.56,17.56,0,0,1,37,53.24a16.14,16.14,0,0,1-6.92,6.18A23.36,23.36,0,0,1,19.75,61.6H1A1,1,0,0,1,.3,61.29ZM12.7,51.07,19.84,51a6.62,6.62,0,0,0,5.22-2.3,9.35,9.35,0,0,0,2.08-6.14V19.75a9.14,9.14,0,0,0-2-6.22,6.66,6.66,0,0,0-5.3-2.31H12.7a.38.38,0,0,0-.43.44v39A.38.38,0,0,0,12.7,51.07Z"/><path class="cls-1" d="M58.06,59.94A17.38,17.38,0,0,1,51,53.07a20.61,20.61,0,0,1-2.52-10.35V19.57A20.42,20.42,0,0,1,51,9.31a17.38,17.38,0,0,1,7.09-6.87A22.08,22.08,0,0,1,68.63,0,22.33,22.33,0,0,1,79.25,2.44a17.3,17.3,0,0,1,7.13,6.87,20.43,20.43,0,0,1,2.53,10.26V42.72a20.61,20.61,0,0,1-2.53,10.35,17.3,17.3,0,0,1-7.13,6.87,22.33,22.33,0,0,1-10.62,2.44A22.08,22.08,0,0,1,58.06,59.94Zm16.4-10.48a8.9,8.9,0,0,0,2.18-6.22v-24a9,9,0,0,0-2.18-6.31,7.47,7.47,0,0,0-5.83-2.39,7.38,7.38,0,0,0-5.74,2.39,9,9,0,0,0-2.17,6.31v24a8.9,8.9,0,0,0,2.17,6.22,7.38,7.38,0,0,0,5.74,2.39A7.47,7.47,0,0,0,74.46,49.46Z"/><path class="cls-1" d="M121.75,61.29a1,1,0,0,1-.31-.74V1.74a1,1,0,0,1,.31-.74,1,1,0,0,1,.74-.3h10.18a1,1,0,0,1,.74.3,1,1,0,0,1,.3.74V60.55a1,1,0,0,1-.3.74,1,1,0,0,1-.74.31H122.49A1,1,0,0,1,121.75,61.29Z"/><path class="cls-1" d="M183.47,1a1,1,0,0,1,.31.74v8.53a1,1,0,0,1-.31.74,1,1,0,0,1-.74.3H169.51a.39.39,0,0,0-.44.43V60.55a1,1,0,0,1-.3.74,1,1,0,0,1-.74.31H157.85a1,1,0,0,1-.74-.31,1,1,0,0,1-.3-.74V11.74a.39.39,0,0,0-.44-.43H143.58a1,1,0,0,1-1-1V1.74a1,1,0,0,1,.3-.74,1,1,0,0,1,.74-.3h39.15A1,1,0,0,1,183.47,1Z"/><path class="cls-2" d="M249.33,57.29Q244,61.6,235.54,61.6H216.05a1,1,0,0,1-.74-.31,1,1,0,0,1-.3-.74V1.74a1,1,0,0,1,.3-.74,1,1,0,0,1,.74-.3h18.19q9.3,0,14.44,4.13t5.13,12.57q0,8.61-6.7,12.44c-.29.17-.32.35-.09.52q7.66,4.35,7.66,14.36Q254.68,53,249.33,57.29ZM227.28,11.66V25.32a.38.38,0,0,0,.43.43h6.61a7.62,7.62,0,0,0,5.48-1.91,7,7,0,0,0,2-5.31,7.2,7.2,0,0,0-2-5.39,7.58,7.58,0,0,0-5.53-1.92h-6.61A.38.38,0,0,0,227.28,11.66Zm13.18,37.28a8,8,0,0,0,1.95-5.79,8.37,8.37,0,0,0-1.95-5.87A7,7,0,0,0,235,35.15h-7.31a.38.38,0,0,0-.43.43v15a.38.38,0,0,0,.43.43H235A7.19,7.19,0,0,0,240.46,48.94Z"/><path class="cls-2" d="M300.7,10.92a1,1,0,0,1-.74.3H276.65a.39.39,0,0,0-.44.44V25.23a.38.38,0,0,0,.44.43h14.53a1,1,0,0,1,.74.31,1,1,0,0,1,.3.74v8.44a1,1,0,0,1-1,1H276.65a.39.39,0,0,0-.44.44v14a.39.39,0,0,0,.44.44H300a1,1,0,0,1,.74.3,1,1,0,0,1,.31.74v8.44A1.06,1.06,0,0,1,300,61.6H265a1,1,0,0,1-.74-.31,1,1,0,0,1-.3-.74V1.74a1,1,0,0,1,1-1h35a1,1,0,0,1,.74.3,1,1,0,0,1,.31.74v8.44A1,1,0,0,1,300.7,10.92Z"/><path class="cls-2" d="M350,1a1,1,0,0,1,.3.74v8.53a1,1,0,0,1-.3.74,1,1,0,0,1-.74.3H336.08a.39.39,0,0,0-.44.43V60.55a1,1,0,0,1-.3.74,1,1,0,0,1-.74.31H324.42a1,1,0,0,1-.74-.31,1,1,0,0,1-.3-.74V11.74a.39.39,0,0,0-.44-.43H310.15a1,1,0,0,1-.74-.3,1,1,0,0,1-.3-.74V1.74a1,1,0,0,1,1-1H349.3A1,1,0,0,1,350,1Z"/><path class="cls-2" d="M399.09,1a1,1,0,0,1,.3.74v8.53a1,1,0,0,1-1,1H385.13a.38.38,0,0,0-.44.43V60.55a1,1,0,0,1-.3.74,1,1,0,0,1-.74.31H373.47a1.06,1.06,0,0,1-1.05-1.05V11.74a.38.38,0,0,0-.43-.43H359.2a1,1,0,0,1-.74-.3,1,1,0,0,1-.3-.74V1.74a1,1,0,0,1,1-1h39.15A1,1,0,0,1,399.09,1Z"/><path class="cls-2" d="M445,10.92a1,1,0,0,1-.74.3H421a.39.39,0,0,0-.44.44V25.23a.38.38,0,0,0,.44.43H435.5a1,1,0,0,1,.74.31,1,1,0,0,1,.3.74v8.44a1,1,0,0,1-1,1H421a.39.39,0,0,0-.44.44v14a.39.39,0,0,0,.44.44h23.31a1,1,0,0,1,.74.3,1,1,0,0,1,.31.74v8.44a1.06,1.06,0,0,1-1.05,1.05h-35a1,1,0,0,1-.74-.31,1,1,0,0,1-.3-.74V1.74a1,1,0,0,1,1-1h35A1,1,0,0,1,445,1a1,1,0,0,1,.31.74v8.44A1,1,0,0,1,445,10.92Z"/><path class="cls-2" d="M481.88,60.73l-8.78-24c-.12-.23-.26-.34-.44-.34h-5.48a.38.38,0,0,0-.43.43V60.55a1.06,1.06,0,0,1-1.05,1.05H455.52a1,1,0,0,1-.74-.31,1,1,0,0,1-.3-.74V1.74a1,1,0,0,1,.3-.74,1,1,0,0,1,.74-.3h21.23A18.06,18.06,0,0,1,485.89,3a15.74,15.74,0,0,1,6.17,6.48,20.45,20.45,0,0,1,2.18,9.57,18.46,18.46,0,0,1-2.44,9.66,14.87,14.87,0,0,1-6.87,6.09.41.41,0,0,0-.26.61l9.92,25a1.06,1.06,0,0,1,.08.43c0,.52-.32.79-.95.79H483.1A1.15,1.15,0,0,1,481.88,60.73ZM466.75,11.66V26.53c0,.3.14.44.43.44h7.57A6.82,6.82,0,0,0,480,24.84a8,8,0,0,0,2-5.7,8.15,8.15,0,0,0-2-5.79,6.82,6.82,0,0,0-5.22-2.13h-7.57A.38.38,0,0,0,466.75,11.66Z"/></g></g></svg>