<svg xmlns="http://www.w3.org/2000/svg" viewBox="0 0 1948.46 316.48"><defs><style>.cls-1{fill:none;stroke:#444;stroke-miterlimit:10;}</style></defs><g id="レイヤー_2" data-name="レイヤー 2"><g id="layout"><path class="cls-1" d="M138.88,5.56A5.1,5.1,0,0,1,142.62,4H194.1a5.26,5.26,0,0,1,5.28,5.28V306.74A5.26,5.26,0,0,1,194.1,312H142.62a5.26,5.26,0,0,1-5.28-5.28V186.18a2,2,0,0,0-2.2-2.2H64.74a2,2,0,0,0-2.2,2.2V306.74A5.26,5.26,0,0,1,57.26,312H5.78A5.06,5.06,0,0,1,2,310.48,5.06,5.06,0,0,1,.5,306.74V9.3A5.09,5.09,0,0,1,2,5.56,5.1,5.1,0,0,1,5.78,4H57.26A5.26,5.26,0,0,1,62.54,9.3V128.1a1.94,1.94,0,0,0,2.2,2.2h70.4a2,2,0,0,0,2.2-2.2V9.3A5.09,5.09,0,0,1,138.88,5.56Z"/><path class="cls-1" d="M322.18,310a5.06,5.06,0,0,1-1.54-3.74V193.66L320.2,191,244.08,10.18a6,6,0,0,1-.44-2.64C243.64,5.2,245.1,4,248,4h55.44c3.22,0,5.28,1.47,6.16,4.4l40.92,111.32q.44,1.32,1.32,1.32t1.32-1.32L394.12,8.42Q395.44,4,400.28,4h55.44c2,0,3.37.59,4,1.76a5.73,5.73,0,0,1,0,4.4L383.12,191l-.44,2.64V306.3a5.26,5.26,0,0,1-5.28,5.28H325.92A5.06,5.06,0,0,1,322.18,310Z"/><path class="cls-1" d="M506.75,310.48a5.06,5.06,0,0,1-1.54-3.74V9.3A5.26,5.26,0,0,1,510.49,4h94.6q29.48,0,52.14,11t35,31.24q12.31,20.25,12.32,47.08V222.7q0,26.85-12.32,47.08t-35,31.24q-22.66,11-52.14,11h-94.6A5.08,5.08,0,0,1,506.75,310.48Zm62.7-51.7,36.08-.44q16.28,0,26.4-11.66t10.56-31V100.38q0-19.8-10.12-31.46T605.53,57.26H569.45a2,2,0,0,0-2.2,2.2V256.58A1.94,1.94,0,0,0,569.45,258.78Z"/><path class="cls-1" d="M893.34,307.62,848.9,186.18c-.6-1.17-1.32-1.76-2.2-1.76H819a1.94,1.94,0,0,0-2.2,2.2V306.74A5.26,5.26,0,0,1,811.5,312H760a5.26,5.26,0,0,1-5.28-5.28V9.3A5.26,5.26,0,0,1,760,4H867.38q25.95,0,46.2,11.66a79.39,79.39,0,0,1,31.24,32.78q11,21.12,11,48.4,0,28.17-12.32,48.84a75.59,75.59,0,0,1-34.76,30.8,2.08,2.08,0,0,0-1.32,3.08l50.16,126.28a5.1,5.1,0,0,1,.44,2.2c0,2.64-1.62,4-4.84,4H899.5C896.26,312,894.22,310.56,893.34,307.62ZM816.78,59.46V134.7a1.94,1.94,0,0,0,2.2,2.2h38.28q16.26,0,26.4-10.78T893.78,97.3q0-18.48-10.12-29.26t-26.4-10.78H819A1.94,1.94,0,0,0,816.78,59.46Z"/><path class="cls-1" d="M1048.57,303.66a88,88,0,0,1-35.86-34.76q-12.76-22.44-12.76-52.36V99.5q0-29.48,12.76-51.92a88,88,0,0,1,35.86-34.76Q1071.67.5,1102,.5t53.68,12.32a87.8,87.8,0,0,1,36.08,34.76Q1204.54,70,1204.55,99.5v117q0,29.93-12.76,52.36a87.74,87.74,0,0,1-36.08,34.76Q1132.39,316,1102,316T1048.57,303.66Zm82.94-53q11-12.09,11-31.46V97.74q0-19.8-11-31.9T1102,53.74q-18,0-29,12.1t-11,31.9V219.18q0,19.37,11,31.46t29,12.1Q1120.51,262.74,1131.51,250.64Z"/><path class="cls-1" d="M1298.22,303.66A85.29,85.29,0,0,1,1262.8,270q-12.54-21.78-12.54-50.38V96q0-28.59,12.54-50.16a85.72,85.72,0,0,1,35.42-33.44Q1321.1.5,1351,.5q29.48,0,52.58,11.66t35.64,32.56q12.54,20.91,12.54,47.3v9.68a5.26,5.26,0,0,1-5.28,5.28H1395a5.26,5.26,0,0,1-5.28-5.28V92.46q0-16.71-10.56-27.72t-28.16-11q-17.6,0-28.38,11.44T1311.86,95.1V220.94q0,18.48,11.22,29.92t29.26,11.44q17.16,0,27.5-10.12t10.34-27.72V197.18a2,2,0,0,0-2.2-2.2h-34.32a5.26,5.26,0,0,1-5.28-5.28v-40a5.26,5.26,0,0,1,5.28-5.28h92.84a5.26,5.26,0,0,1,5.28,5.28v70q0,44-27.5,70t-73.26,26Q1321.09,315.54,1298.22,303.66Z"/><path class="cls-1" d="M1687.18,55.72a5.09,5.09,0,0,1-3.74,1.54H1565.52a2,2,0,0,0-2.2,2.2V128.1a1.94,1.94,0,0,0,2.2,2.2H1639a5.26,5.26,0,0,1,5.28,5.28v42.68a5.26,5.26,0,0,1-5.28,5.28h-73.48a2,2,0,0,0-2.2,2.2v70.84a1.94,1.94,0,0,0,2.2,2.2h117.92a5.26,5.26,0,0,1,5.28,5.28v42.68a5.26,5.26,0,0,1-5.28,5.28H1506.56a5.26,5.26,0,0,1-5.28-5.28V9.3A5.26,5.26,0,0,1,1506.56,4h176.88a5.26,5.26,0,0,1,5.28,5.28V52A5.1,5.1,0,0,1,1687.18,55.72Z"/><path class="cls-1" d="M1887.9,5.56A5.12,5.12,0,0,1,1891.64,4h51A5.26,5.26,0,0,1,1948,9.3V306.74a5.26,5.26,0,0,1-5.28,5.28H1889a6.23,6.23,0,0,1-6.16-4L1798.8,129c-.59-.88-1.17-1.32-1.76-1.32s-.88.59-.88,1.76l.44,177.32a5.26,5.26,0,0,1-5.28,5.28h-51a5.26,5.26,0,0,1-5.28-5.28V9.3A5.26,5.26,0,0,1,1740.28,4h53.24a6.23,6.23,0,0,1,6.16,4l84,179.08c.59.88,1.17,1.32,1.76,1.32s.88-.58.88-1.76V9.3A5.09,5.09,0,0,1,1887.9,5.56Z"/></g></g></svg>