<svg xmlns="http://www.w3.org/2000/svg" viewBox="0 0 50.15 56.87"><defs><style>.cls-1{fill:#fff;}</style></defs><g id="レイヤー_2" data-name="レイヤー 2"><g id="layout"><path id="パス_266" data-name="パス 266" class="cls-1" d="M50.11,32.83c0-1.51-.59-2.06-1.27-3.62-1.38-3.13.93-8,.77-12.72C49.39,9.42,37.35.07,25.1,0,13.27-.08.76,8.51.55,15.58.42,20.3,2.7,26.1,1.35,29.23.68,30.79,0,31.3,0,32.86.09,35,1.71,36,1.71,37.82s-3.71,11,4.8,11.75c3.28.29,6.9-2.44,7.67-1.14.54,1.11-.51,3.54.5,5.86a4.69,4.69,0,0,0,1.77.38c.42,0,.67-1.35.67-1.35s-.17,2.37.64,2.53A17,17,0,0,0,19.9,56c.51,0,1.27-2.19,1.27-2.19s-.17,2.53.92,2.86a11.36,11.36,0,0,0,2.4.17c.55,0,.64-2.86.64-2.86s.08,2.82.58,2.86a11.19,11.19,0,0,0,2.45-.17c1.09-.33.92-2.86.92-2.86S29.84,56,30.35,56a17,17,0,0,0,2.14-.17c.81-.16.64-2.53.64-2.53s.2,1.35.67,1.35a4.33,4.33,0,0,0,1.77-.38c1-2.31-.08-4.75.5-5.86.76-1.3,4.38,1.43,7.68,1.14,8.51-.72,4.8-9.89,4.8-11.75s1.6-2.77,1.6-5m-38,9.25A7.63,7.63,0,0,1,5.1,34.79c0-1.47,2.44-4.33,8.58-3.78s7.16,3.66,7.16,5.13a8.87,8.87,0,0,1-8.67,6m14,4c-.58.07-1-1-1-1s-.47,1-1.14.93-.85-.85-.8-1.39A10.08,10.08,0,0,1,25.06,42a9.92,9.92,0,0,1,1.85,2.69c.08.51-.09,1.35-.76,1.35m11.79-4a8.81,8.81,0,0,1-8.68-6c0-1.48,1.1-4.55,7.16-5.14S45,33.33,45,34.8a7.56,7.56,0,0,1-7,7.32"/></g></g></svg>